{
    "asset" : {
        "generator" : "Khronos glTF Blender I/O v1.4.40",
        "version" : "2.0"
    },
    "scene" : 0,
    "scenes" : [
        {
            "name" : "Scene",
            "nodes" : [
                0
            ]
        }
    ],
    "nodes" : [
        {
            "mesh" : 0,
            "name" : "Grand_Canyon_v2_0",
            "rotation" : [
                0.7071068286895752,
                0,
                0,
                0.7071067094802856
            ]
        }
    ],
    "materials" : [
        {
            "doubleSided" : true,
            "name" : "CityEngineTerrainMaterial.008",
            "pbrMetallicRoughness" : {
                "baseColorTexture" : {
                    "index" : 0,
                    "texCoord" : 0
                },
                "metallicFactor" : 0
            }
        },
        {
            "doubleSided" : true,
            "name" : "CityEngineTerrainSidesMaterial",
            "pbrMetallicRoughness" : {
                "baseColorFactor" : [
                    0.08630000054836273,
                    0.0471000000834465,
                    0.011800000444054604,
                    1
                ],
                "metallicFactor" : 0
            }
        }
    ],
    "meshes" : [
        {
            "name" : "Grand_Canyon_v2_0",
            "primitives" : [
                {
                    "attributes" : {
                        "POSITION" : 0,
                        "TEXCOORD_0" : 1
                    },
                    "indices" : 2,
                    "material" : 0
                },
                {
                    "attributes" : {
                        "POSITION" : 3,
                        "TEXCOORD_0" : 4
                    },
                    "indices" : 5,
                    "material" : 1
                }
            ]
        }
    ],
    "textures" : [
        {
            "sampler" : 0,
            "source" : 0
        }
    ],
    "images" : [
        {
            "mimeType" : "image/jpeg",
            "name" : "texture",
            "uri" : "texture.jpg"
        }
    ],
    "accessors" : [
        {
            "bufferView" : 0,
            "componentType" : 5126,
            "count" : 2879,
            "max" : [
                22600.875,
                20405,
                -351.8890075683594
            ],
            "min" : [
                -22600.890625,
                -20404.75,
                -1989.864990234375
            ],
            "type" : "VEC3"
        },
        {
            "bufferView" : 1,
            "componentType" : 5126,
            "count" : 2879,
            "type" : "VEC2"
        },
        {
            "bufferView" : 2,
            "componentType" : 5123,
            "count" : 15840,
            "type" : "SCALAR"
        },
        {
            "bufferView" : 3,
            "componentType" : 5126,
            "count" : 952,
            "max" : [
                22600.875,
                20405,
                0.015799999237060547
            ],
            "min" : [
                -22600.890625,
                -20404.75,
                -1983.3360595703125
            ],
            "type" : "VEC3"
        },
        {
            "bufferView" : 4,
            "componentType" : 5126,
            "count" : 952,
            "type" : "VEC2"
        },
        {
            "bufferView" : 5,
            "componentType" : 5123,
            "count" : 2856,
            "type" : "SCALAR"
        }
    ],
    "bufferViews" : [
        {
            "buffer" : 0,
            "byteLength" : 34548,
            "byteOffset" : 0
        },
        {
            "buffer" : 0,
            "byteLength" : 23032,
            "byteOffset" : 34548
        },
        {
            "buffer" : 0,
            "byteLength" : 31680,
            "byteOffset" : 57580
        },
        {
            "buffer" : 0,
            "byteLength" : 11424,
            "byteOffset" : 89260
        },
        {
            "buffer" : 0,
            "byteLength" : 7616,
            "byteOffset" : 100684
        },
        {
            "buffer" : 0,
            "byteLength" : 5712,
            "byteOffset" : 108300
        }
    ],
    "samplers" : [
        {
            "magFilter" : 9729,
            "minFilter" : 9986
        }
    ],
    "buffers" : [
        {
            "byteLength" : 114012,
            "uri" : "scene.bin"
        }
    ]
}
