<?xml version="1.0" encoding="utf-8"?>
<!-- Generator: Adobe Illustrator 24.3.0, SVG Export Plug-In . SVG Version: 6.00 Build 0)  -->
<svg version="1.1" id="Capa_1" xmlns="http://www.w3.org/2000/svg" xmlns:xlink="http://www.w3.org/1999/xlink" x="0px" y="0px"
	 viewBox="0 0 512 1024" style="enable-background:new 0 0 512 1024;" xml:space="preserve">
<style type="text/css">
	.st0{fill:#A3A3AC;}
	.st1{fill:#DCDCEB;}
</style>
<g>
	
		<image style="overflow:visible;enable-background:new    ;" width="442" height="442" xlink:href="CB5D366B832EC895.png"  transform="matrix(1 0 0 1 42 42)">
	</image>
	<g>
		<g>
			<path class="st0" d="M421.7,311.7H200.3V90.3c0-5.7-4.6-10.3-10.3-10.3H90.3C84.6,80,80,84.6,80,90.3v331.4
				c0,5.7,4.6,10.3,10.3,10.3h331.4c5.7,0,10.3-4.6,10.3-10.3V322C432,316.3,427.4,311.7,421.7,311.7z M100.6,100.6h79.1v29.6H157
				c-5.7,0-10.3,4.6-10.3,10.3s4.6,10.3,10.3,10.3h22.7v23.4H168c-5.7,0-10.3,4.6-10.3,10.3s4.6,10.3,10.3,10.3h11.7v23.4H157
				c-5.7,0-10.3,4.6-10.3,10.3s4.6,10.3,10.3,10.3h22.7v23.4H168c-5.7,0-10.3,4.6-10.3,10.3s4.6,10.3,10.3,10.3h11.7v28.9h-79.1
				L100.6,100.6L100.6,100.6z M100.6,332.3h79.1v79.1h-79.1C100.6,411.4,100.6,332.3,100.6,332.3z M411.4,411.4H200.3v-79.1h28.9
				V355c0,5.7,4.6,10.3,10.3,10.3s10.3-4.6,10.3-10.3v-22.7h23.4V344c0,5.7,4.6,10.3,10.3,10.3s10.3-4.6,10.3-10.3v-11.7h23.4V355
				c0,5.7,4.6,10.3,10.3,10.3s10.3-4.6,10.3-10.3v-22.7h23.4V344c0,5.7,4.6,10.3,10.3,10.3s10.3-4.6,10.3-10.3v-11.7h29.6
				L411.4,411.4L411.4,411.4z"/>
			<path class="st0" d="M150.6,369.5c-1.3-6.1-7.4-9.6-13.1-7.9c-5.9,1.9-8.4,7.8-6.9,12.9c1.9,6,7.8,8.4,12.9,6.9
				C148.9,379.6,151.6,374.5,150.6,369.5L150.6,369.5z"/>
		</g>
	</g>
</g>
<g>
	
		<image style="overflow:visible;" width="472" height="472" xlink:href="CB5D366B832EC897.png"  transform="matrix(1 0 0 1 34 546)">
	</image>
	<g>
		<g>
			<g>
				<g>
					<path class="st1" d="M421.7,823.7H200.3V602.3c0-5.7-4.6-10.3-10.3-10.3H90.3c-5.7,0-10.3,4.6-10.3,10.3v331.4
						c0,5.7,4.6,10.3,10.3,10.3h331.4c5.7,0,10.3-4.6,10.3-10.3V834C432,828.3,427.4,823.7,421.7,823.7z M100.6,612.6h79.1v29.6H157
						c-5.7,0-10.3,4.6-10.3,10.3s4.6,10.3,10.3,10.3h22.7v23.4H168c-5.7,0-10.3,4.6-10.3,10.3s4.6,10.3,10.3,10.3h11.7v23.4H157
						c-5.7,0-10.3,4.6-10.3,10.3s4.6,10.3,10.3,10.3h22.7v23.4H168c-5.7,0-10.3,4.6-10.3,10.3s4.6,10.3,10.3,10.3h11.7v28.9h-79.1
						L100.6,612.6L100.6,612.6z M100.6,844.3h79.1v79.1h-79.1C100.6,923.4,100.6,844.3,100.6,844.3z M411.4,923.4H200.3v-79.1h28.9
						V867c0,5.7,4.6,10.3,10.3,10.3s10.3-4.6,10.3-10.3v-22.7h23.4V856c0,5.7,4.6,10.3,10.3,10.3s10.3-4.6,10.3-10.3v-11.7h23.4V867
						c0,5.7,4.6,10.3,10.3,10.3s10.3-4.6,10.3-10.3v-22.7h23.4V856c0,5.7,4.6,10.3,10.3,10.3s10.3-4.6,10.3-10.3v-11.7h29.6
						L411.4,923.4L411.4,923.4z"/>
					<path class="st1" d="M150.6,881.5c-1.3-6.1-7.4-9.6-13.1-7.8c-5.9,1.9-8.4,7.8-6.9,12.9c1.9,6,7.8,8.4,12.9,6.9
						C148.9,891.6,151.6,886.5,150.6,881.5L150.6,881.5z"/>
				</g>
			</g>
		</g>
	</g>
</g>
</svg>
