{
    "asset" : {
        "generator" : "Khronos glTF Blender I/O v1.4.40",
        "version" : "2.0"
    },
    "scene" : 0,
    "scenes" : [
        {
            "name" : "Scene",
            "nodes" : [
                0
            ]
        }
    ],
    "nodes" : [
        {
            "mesh" : 0,
            "name" : "CityEngineTerrainMaterial.001",
            "rotation" : [
                0.7071068286895752,
                0,
                0,
                0.7071067094802856
            ]
        }
    ],
    "materials" : [
        {
            "doubleSided" : true,
            "name" : "TerrainMaterialMain",
            "pbrMetallicRoughness" : {
                "baseColorTexture" : {
                    "index" : 0,
                    "texCoord" : 0
                },
                "metallicFactor" : 0
            }
        },
        {
            "doubleSided" : true,
            "name" : "SideMaterial",
            "pbrMetallicRoughness" : {
                "baseColorFactor" : [
                    0.050999999046325684,
                    0.027499999850988388,
                    0.007799999788403511,
                    1
                ],
                "metallicFactor" : 0
            }
        }
    ],
    "meshes" : [
        {
            "name" : "CityEngineTerrainMaterial.001",
            "primitives" : [
                {
                    "attributes" : {
                        "POSITION" : 0,
                        "TEXCOORD_0" : 1
                    },
                    "indices" : 2,
                    "material" : 0
                },
                {
                    "attributes" : {
                        "POSITION" : 3,
                        "TEXCOORD_0" : 4
                    },
                    "indices" : 5,
                    "material" : 1
                }
            ]
        }
    ],
    "textures" : [
        {
            "sampler" : 0,
            "source" : 0
        }
    ],
    "images" : [
        {
            "mimeType" : "image/jpeg",
            "name" : "texture",
            "uri" : "texture.jpg"
        }
    ],
    "accessors" : [
        {
            "bufferView" : 0,
            "componentType" : 5126,
            "count" : 1999,
            "max" : [
                10304.96875,
                10642.75,
                -4286.6669921875
            ],
            "min" : [
                -10304.9375,
                -10642.75,
                -8677.2080078125
            ],
            "type" : "VEC3"
        },
        {
            "bufferView" : 1,
            "componentType" : 5126,
            "count" : 1999,
            "type" : "VEC2"
        },
        {
            "bufferView" : 2,
            "componentType" : 5123,
            "count" : 10800,
            "type" : "SCALAR"
        },
        {
            "bufferView" : 3,
            "componentType" : 5126,
            "count" : 792,
            "max" : [
                10304.96875,
                10642.75,
                0.017899999395012856
            ],
            "min" : [
                -10304.9375,
                -10642.75,
                -6662.28076171875
            ],
            "type" : "VEC3"
        },
        {
            "bufferView" : 4,
            "componentType" : 5126,
            "count" : 792,
            "type" : "VEC2"
        },
        {
            "bufferView" : 5,
            "componentType" : 5123,
            "count" : 2376,
            "type" : "SCALAR"
        }
    ],
    "bufferViews" : [
        {
            "buffer" : 0,
            "byteLength" : 23988,
            "byteOffset" : 0
        },
        {
            "buffer" : 0,
            "byteLength" : 15992,
            "byteOffset" : 23988
        },
        {
            "buffer" : 0,
            "byteLength" : 21600,
            "byteOffset" : 39980
        },
        {
            "buffer" : 0,
            "byteLength" : 9504,
            "byteOffset" : 61580
        },
        {
            "buffer" : 0,
            "byteLength" : 6336,
            "byteOffset" : 71084
        },
        {
            "buffer" : 0,
            "byteLength" : 4752,
            "byteOffset" : 77420
        }
    ],
    "samplers" : [
        {
            "magFilter" : 9729,
            "minFilter" : 9986
        }
    ],
    "buffers" : [
        {
            "byteLength" : 82172,
            "uri" : "scene.bin"
        }
    ]
}
