<?xml version="1.0" encoding="utf-8"?>
<!-- Generator: Adobe Illustrator 24.3.0, SVG Export Plug-In . SVG Version: 6.00 Build 0)  -->
<svg version="1.1" id="Layer_1" xmlns="http://www.w3.org/2000/svg" xmlns:xlink="http://www.w3.org/1999/xlink" x="0px" y="0px"
	 viewBox="0 0 198 122.69" style="enable-background:new 0 0 198 122.69;" xml:space="preserve">
<style type="text/css">
	.st0{display:none;fill:#282526;}
	.st1{display:none;}
	.st2{display:inline;fill:none;stroke:#564547;stroke-width:0.5;stroke-miterlimit:10;}
	.st3{display:inline;fill:none;stroke:#564547;stroke-width:0.5;stroke-miterlimit:10.0006;}
	.st4{display:inline;fill:none;stroke:#564547;stroke-width:0.5;stroke-miterlimit:10.0003;}
	.st5{display:inline;fill:none;stroke:#564547;stroke-width:0.5;stroke-miterlimit:9.9998;}
	.st6{display:inline;fill:none;stroke:#564547;stroke-width:0.5;stroke-miterlimit:10.0004;}
	.st7{display:inline;fill:none;stroke:#A3A3AC;stroke-miterlimit:10;}
	.st8{fill:none;stroke:#7C6A6C;stroke-width:0.5;stroke-miterlimit:10;}
	.st9{fill:none;stroke:#7C6A6C;stroke-width:0.5;stroke-miterlimit:10.0006;}
	.st10{fill:none;stroke:#7C6A6C;stroke-width:0.5;stroke-miterlimit:10.0003;}
	.st11{fill:none;stroke:#7C6A6C;stroke-width:0.5;stroke-miterlimit:9.9998;}
	.st12{fill:none;stroke:#7C6A6C;stroke-width:0.5;stroke-miterlimit:10.0004;}
	.st13{fill:none;stroke:#DCDCEA;stroke-miterlimit:10;}
</style>
<rect y="-0.72" class="st0" width="198" height="123.41"/>
<g class="st1">
	<circle class="st2" cx="99" cy="58.98" r="49.76"/>
	
		<ellipse transform="matrix(0.9415 -0.3369 0.3369 0.9415 -3.0366 28.013)" class="st3" cx="79.21" cy="22.76" rx="10.27" ry="5.06"/>
	
		<ellipse transform="matrix(0.7433 -0.669 0.669 0.7433 -25.9075 106.0283)" class="st4" cx="125.19" cy="86.77" rx="10.27" ry="5.06"/>
	<ellipse transform="matrix(0.99 -0.1409 0.1409 0.99 -12.9203 15.529)" class="st5" cx="103.2" cy="99" rx="10.27" ry="6.97"/>
	
		<ellipse transform="matrix(0.9002 -0.4354 0.4354 0.9002 -9.9442 32.7112)" class="st3" cx="66.41" cy="38.06" rx="8.77" ry="5.68"/>
	
		<ellipse transform="matrix(0.9002 -0.4354 0.4354 0.9002 -5.8063 39.3973)" class="st3" cx="83.07" cy="32.37" rx="5.17" ry="3.82"/>
	
		<ellipse transform="matrix(0.9002 -0.4354 0.4354 0.9002 -26.0093 55.5947)" class="st3" cx="108.32" cy="84.56" rx="5.17" ry="3.82"/>
	
		<ellipse transform="matrix(0.4535 -0.8913 0.8913 0.4535 47.3435 122.7208)" class="st6" cx="123.74" cy="22.76" rx="3.82" ry="5.17"/>
	<ellipse transform="matrix(0.4535 -0.8913 0.8913 0.4535 41.6711 135.9571)" class="st6" cx="131.7" cy="34" rx="4.58" ry="5.17"/>
	
		<ellipse transform="matrix(0.4535 -0.8913 0.8913 0.4535 -27.4768 118.802)" class="st6" cx="83.13" cy="81.81" rx="4.58" ry="5.17"/>
	<ellipse class="st2" cx="73.44" cy="60.43" rx="3.76" ry="2.61"/>
	<ellipse class="st2" cx="107.74" cy="53.65" rx="3.76" ry="3.23"/>
	<ellipse transform="matrix(0.4535 -0.8913 0.8913 0.4535 34.968 120.6874)" class="st6" cx="115.89" cy="31.83" rx="5.42" ry="6"/>
	<path class="st2" d="M49.32,56.13c0,0,3.34,3.86,8.11,3.66s9.84-4.87,16.24-4.87s7.61,6.1,16.75,4.88
		c9.13-1.23,10.25-10.87,16.44-11.27c6.19-0.41,15.93,11.37,21.01,10.46c5.08-0.91,14.41-8.12,15.73-12.18s0.88-8.06,0.88-8.06"/>
	<path class="st2" d="M64.18,94.54c0,0-3.41-5.72,3.29-6.74c6.7-1.01,15.12,3.25,19.89,0.61s8.73-11.87,14.41-12.79
		s8.12-0.61,15.12,1.83c6.28,2.18,23.85-1.93,24.36-13.19c0.41-6.43,3.76-11.06,4.97-11.87c1.22-0.81,1.8-1.96,1.8-1.96"/>
</g>
<g class="st1">
	<circle class="st7" cx="74.95" cy="39.38" r="4.25"/>
	<circle class="st7" cx="111.24" cy="26.55" r="4.25"/>
	<circle class="st7" cx="143.9" cy="54.34" r="4.25"/>
	<line class="st7" x1="115.1" y1="28.33" x2="140.44" y2="51.87"/>
	<line class="st7" x1="107.54" y1="28.65" x2="79.2" y2="39.38"/>
</g>
<polyline class="st0" points="198,122.69 0,122.69 0,-0.72 198,-0.72 "/>
<g>
	<circle class="st8" cx="99" cy="58.98" r="49.76"/>
	
		<ellipse transform="matrix(0.9415 -0.3369 0.3369 0.9415 -3.0366 28.013)" class="st9" cx="79.21" cy="22.76" rx="10.27" ry="5.06"/>
	
		<ellipse transform="matrix(0.7433 -0.669 0.669 0.7433 -25.9075 106.0283)" class="st10" cx="125.19" cy="86.77" rx="10.27" ry="5.06"/>
	<ellipse transform="matrix(0.99 -0.1409 0.1409 0.99 -12.9203 15.529)" class="st11" cx="103.2" cy="99" rx="10.27" ry="6.97"/>
	
		<ellipse transform="matrix(0.9002 -0.4354 0.4354 0.9002 -9.9442 32.7112)" class="st9" cx="66.41" cy="38.06" rx="8.77" ry="5.68"/>
	
		<ellipse transform="matrix(0.9002 -0.4354 0.4354 0.9002 -5.8063 39.3973)" class="st9" cx="83.07" cy="32.37" rx="5.17" ry="3.82"/>
	
		<ellipse transform="matrix(0.9002 -0.4354 0.4354 0.9002 -26.0093 55.5947)" class="st9" cx="108.32" cy="84.56" rx="5.17" ry="3.82"/>
	
		<ellipse transform="matrix(0.4535 -0.8913 0.8913 0.4535 47.3435 122.7208)" class="st12" cx="123.74" cy="22.76" rx="3.82" ry="5.17"/>
	
		<ellipse transform="matrix(0.4535 -0.8913 0.8913 0.4535 41.6711 135.9571)" class="st12" cx="131.7" cy="34" rx="4.58" ry="5.17"/>
	
		<ellipse transform="matrix(0.4535 -0.8913 0.8913 0.4535 -27.4768 118.802)" class="st12" cx="83.13" cy="81.81" rx="4.58" ry="5.17"/>
	<ellipse class="st8" cx="73.44" cy="60.43" rx="3.76" ry="2.61"/>
	<ellipse class="st8" cx="107.74" cy="53.65" rx="3.76" ry="3.23"/>
	
		<ellipse transform="matrix(0.4535 -0.8913 0.8913 0.4535 34.968 120.6874)" class="st12" cx="115.89" cy="31.83" rx="5.42" ry="6"/>
	<path class="st8" d="M49.32,56.13c0,0,3.34,3.86,8.11,3.66s9.84-4.87,16.24-4.87s7.61,6.1,16.75,4.88
		c9.13-1.23,10.25-10.87,16.44-11.27c6.19-0.41,15.93,11.37,21.01,10.46c5.08-0.91,14.41-8.12,15.73-12.18s0.88-8.06,0.88-8.06"/>
	<path class="st8" d="M64.18,94.54c0,0-3.41-5.72,3.29-6.74c6.7-1.01,15.12,3.25,19.89,0.61s8.73-11.87,14.41-12.79
		s8.12-0.61,15.12,1.83c6.28,2.18,23.85-1.93,24.36-13.19c0.41-6.43,3.76-11.06,4.97-11.87c1.22-0.81,1.8-1.96,1.8-1.96"/>
</g>
<g>
	<circle class="st13" cx="78.95" cy="16.69" r="4.25"/>
	<circle class="st13" cx="114.8" cy="18.46" r="4.25"/>
	<circle class="st13" cx="91.82" cy="43.49" r="4.25"/>
	<circle class="st13" cx="131.27" cy="47.94" r="4.25"/>
	<line class="st13" x1="117.39" y1="21.84" x2="129.63" y2="44.02"/>
	<line class="st13" x1="110.44" y1="19.16" x2="83.11" y2="16.34"/>
	<line class="st13" x1="80.3" y1="20.71" x2="88.79" y2="39.93"/>
	<line class="st13" x1="95.88" y1="44.75" x2="127.09" y2="48.65"/>
</g>
</svg>
