<?xml version="1.0" encoding="utf-8"?>
<!-- Generator: Adobe Illustrator 24.3.0, SVG Export Plug-In . SVG Version: 6.00 Build 0)  -->
<svg version="1.1" id="Capa_1" xmlns="http://www.w3.org/2000/svg" xmlns:xlink="http://www.w3.org/1999/xlink" x="0px" y="0px"
	 viewBox="0 0 469.3 938.7" style="enable-background:new 0 0 469.3 938.7;" xml:space="preserve">
<style type="text/css">
	.st0{fill:#A3A3AC;}
	.st1{fill:#DCDCEB;}
</style>
<g>
	
		<image style="overflow:visible;enable-background:new    ;" width="347" height="405" xlink:href="AF07F7A8FD354A11.png"  transform="matrix(1 0 0 1 68 39.33)">
	</image>
	<g>
		<g>
			<g>
				<g>
					<path class="st0" d="M206.1,106.3h-71.3c-15.8,0-28.5,12.8-28.5,28.5v199.6c0,15.8,12.8,28.5,28.5,28.5h71.3v28.5h28.5V77.8
						h-28.5V106.3z M206.1,320.2h-71.3l71.3-85.6V320.2z"/>
					<path class="st0" d="M334.5,106.3h-71.3v28.5h71.3v185.4l-71.3-85.6V363h71.3c15.8,0,28.5-12.8,28.5-28.5V134.9
						C363,119.1,350.2,106.3,334.5,106.3z"/>
				</g>
			</g>
		</g>
	</g>
</g>
<g>
	
		<image style="overflow:visible;" width="377" height="435" xlink:href="AF07F7A8FD354A17.png"  transform="matrix(1 0 0 1 60 500.33)">
	</image>
	<g>
		<g>
			<g>
				<g>
					<g>
						<g>
							<path class="st1" d="M206.1,575.7h-71.3c-15.8,0-28.5,12.8-28.5,28.5v199.6c0,15.8,12.8,28.5,28.5,28.5h71.3v28.5h28.5V547.1
								h-28.5V575.7z M206.1,789.5h-71.3l71.3-85.5V789.5z"/>
							<path class="st1" d="M334.5,575.7h-71.3v28.5h71.3v185.4L263.2,704v128.3h71.3c15.8,0,28.5-12.8,28.5-28.5V604.2
								C363,588.4,350.2,575.7,334.5,575.7z"/>
						</g>
					</g>
				</g>
			</g>
		</g>
	</g>
</g>
</svg>
