<?xml version="1.0" encoding="utf-8"?>
<!-- Generator: Adobe Illustrator 24.3.0, SVG Export Plug-In . SVG Version: 6.00 Build 0)  -->
<svg version="1.1" id="Layer_1" xmlns="http://www.w3.org/2000/svg" xmlns:xlink="http://www.w3.org/1999/xlink" x="0px" y="0px"
	 viewBox="0 0 198 122.69" style="enable-background:new 0 0 198 122.69;" xml:space="preserve">
<style type="text/css">
	.st0{display:none;fill:#282526;}
	.st1{display:none;}
	.st2{display:inline;fill:none;stroke:#564547;stroke-width:0.5;stroke-miterlimit:10;}
	.st3{display:inline;fill:none;stroke:#A3A3AC;stroke-miterlimit:10;}
	.st4{fill:none;stroke:#7C6A6C;stroke-width:0.5;stroke-miterlimit:10;}
	.st5{fill:#7C6A6C;}
	.st6{fill:none;stroke:#DCDCEA;stroke-miterlimit:10;}
</style>
<rect y="-0.72" class="st0" width="198" height="123.41"/>
<g class="st1">
	<circle class="st2" cx="99" cy="58.98" r="49.76"/>
	
		<ellipse transform="matrix(0.9416 -0.3369 0.3369 0.9416 -3.0371 28.0085)" class="st2" cx="79.2" cy="22.76" rx="10.27" ry="5.06"/>
	
		<ellipse transform="matrix(0.7433 -0.669 0.669 0.7433 -25.9085 106.0259)" class="st2" cx="125.19" cy="86.77" rx="10.27" ry="5.06"/>
	<ellipse transform="matrix(0.99 -0.1409 0.1409 0.99 -12.9182 15.5244)" class="st2" cx="103.2" cy="99.01" rx="10.27" ry="6.97"/>
	
		<ellipse transform="matrix(0.9003 -0.4354 0.4354 0.9003 -9.9462 32.7064)" class="st2" cx="66.41" cy="38.06" rx="8.77" ry="5.68"/>
	
		<ellipse transform="matrix(0.9003 -0.4354 0.4354 0.9003 -5.8077 39.3957)" class="st2" cx="83.07" cy="32.37" rx="5.17" ry="3.82"/>
	
		<ellipse transform="matrix(0.9003 -0.4354 0.4354 0.9003 -26.0086 55.5865)" class="st2" cx="108.31" cy="84.56" rx="5.17" ry="3.82"/>
	
		<ellipse transform="matrix(0.4535 -0.8913 0.8913 0.4535 47.3412 122.7152)" class="st2" cx="123.73" cy="22.76" rx="3.82" ry="5.17"/>
	
		<ellipse transform="matrix(0.4535 -0.8913 0.8913 0.4535 41.6699 135.9561)" class="st2" cx="131.69" cy="34" rx="4.58" ry="5.17"/>
	
		<ellipse transform="matrix(0.4535 -0.8913 0.8913 0.4535 -27.4746 118.8031)" class="st2" cx="83.13" cy="81.8" rx="4.58" ry="5.17"/>
	<ellipse class="st2" cx="73.44" cy="60.43" rx="3.76" ry="2.61"/>
	<ellipse class="st2" cx="107.74" cy="53.65" rx="3.76" ry="3.23"/>
	
		<ellipse transform="matrix(0.4535 -0.8913 0.8913 0.4535 34.9668 120.6885)" class="st2" cx="115.89" cy="31.83" rx="5.42" ry="6"/>
	<path class="st2" d="M49.32,56.13c0,0,3.34,3.86,8.11,3.66c4.77-0.2,9.84-4.87,16.24-4.87s7.61,6.1,16.75,4.88
		c9.13-1.23,10.25-10.87,16.44-11.27c6.19-0.41,15.93,11.37,21.01,10.46s14.41-8.12,15.73-12.18c1.32-4.06,0.88-8.06,0.88-8.06"/>
	<path class="st2" d="M64.18,94.54c0,0-3.41-5.72,3.29-6.74c6.7-1.01,15.12,3.25,19.89,0.61c4.77-2.64,8.73-11.87,14.41-12.79
		s8.12-0.61,15.12,1.83c6.28,2.18,23.85-1.93,24.36-13.19c0.41-6.43,3.76-11.06,4.97-11.87c1.22-0.81,1.8-1.96,1.8-1.96"/>
</g>
<g class="st1">
	<circle class="st3" cx="74.95" cy="39.38" r="4.25"/>
	<circle class="st3" cx="111.24" cy="26.55" r="4.25"/>
	<circle class="st3" cx="143.9" cy="54.34" r="4.25"/>
	<line class="st3" x1="115.1" y1="28.33" x2="140.44" y2="51.87"/>
	<line class="st3" x1="107.54" y1="28.65" x2="79.2" y2="39.38"/>
</g>
<polyline class="st0" points="198,122.69 0,122.69 0,-0.72 198,-0.72 "/>
<g>
	
		<ellipse transform="matrix(0.5417 -0.8406 0.8406 0.5417 -6.7359 74.8585)" class="st4" cx="65.28" cy="43.61" rx="5.98" ry="3.96"/>
	
		<ellipse transform="matrix(0.983 -0.1834 0.1834 0.983 -10.9651 28.008)" class="st4" cx="145.98" cy="73.3" rx="11.43" ry="8.44"/>
	<ellipse transform="matrix(0.854 -0.5203 0.5203 0.854 -29.8826 40.1171)" class="st4" cx="56.54" cy="73.3" rx="9.94" ry="6.76"/>
	<ellipse transform="matrix(0.2223 -0.975 0.975 0.2223 43.3754 134.675)" class="st4" cx="106.1" cy="40.15" rx="4.76" ry="3.34"/>
	
		<ellipse transform="matrix(0.5771 -0.8167 0.8167 0.5771 19.2712 152.9548)" class="st4" cx="157.32" cy="57.87" rx="4.53" ry="5.88"/>
	
		<ellipse transform="matrix(0.7685 -0.6398 0.6398 0.7685 -6.5247 122.5878)" class="st4" cx="166.16" cy="70.31" rx="5.37" ry="5.94"/>
	<ellipse class="st4" cx="78.15" cy="65.98" rx="4.18" ry="3.17"/>
	<circle class="st4" cx="122.52" cy="37.63" r="3.45"/>
	
		<ellipse transform="matrix(0.8195 -0.573 0.573 0.8195 -6.9353 76.9041)" class="st4" cx="118.63" cy="49.46" rx="6.34" ry="6.92"/>
	<path class="st4" d="M50.37,61.84c0,0,6.89-3.96,11.73-1.65c4.84,2.32,10.44,1.19,12.71-0.73s9.38-2.65,17.09,1.19
		s14.83,17.24,20.42,15.25c5.6-1.99,8.32-2.29,12.71-6.77c4.39-4.48,12.4-13.69,12.4-13.69"/>
	<path class="st4" d="M73.97,43.61c0,0,3.4,3.02,6.43,2.19c3.03-0.83,7.94-5.65,7.94-5.65"/>
	<path class="st4" d="M76.31,37.1c0,0,2.17,1.67,3.89-1.26"/>
	<path class="st4" d="M97.42,53.12c0,0,6.3,14.85,10.22,14.85c3.92,0,12.09-0.24,12.54-2.19"/>
	<path class="st4" d="M104.6,57.05c0,0,3.18,5.13,5.9,4.8"/>
	<path class="st4" d="M73.44,76.11c0,0,10.59-2.68,15.88-1.36c5.29,1.32,17.18,9.93,19.48,9.93c2.3,0,13.2,1.49,13.95-1.16"/>
	<g>
		<path class="st5" d="M88.63,42.36c1.39,5.62,3.11,12.61,5.5,13.52c0.51,0.2,1.02,0.12,1.53-0.22c2.52-1.71,3.1-5.61,3.7-9.73
			c0.49-3.34,1-6.8,2.53-9.6c1.96-3.58,4.24-3.12,6.45-2.67c1.58,0.32,3.07,0.63,4.16-0.72c1.19-1.47,1.19-4.02,1.19-6.73
			c0-2.9,0-5.89,1.54-7.48c0.22-0.23,0.45-0.32,0.68-0.28c1.21,0.22,2.72,3.73,4.06,6.82c1.43,3.32,2.78,6.45,4.14,6.95
			c0.3,0.11,0.59,0.1,0.87-0.04c0.11-0.05,0.21-0.05,0.34,0c1.41,0.55,3.52,5.99,5.55,11.26c2.4,6.21,4.67,12.08,6.53,12.26
			c2.92,0.27,8.19-7,12.51-13.97c-0.13-0.11-0.27-0.21-0.39-0.33c-5.58,9-9.96,13.99-12.08,13.8c-1.55-0.15-3.98-6.41-6.11-11.94
			c-2.17-5.61-4.21-10.91-5.83-11.54c-0.26-0.1-0.51-0.09-0.74,0.02c-0.15,0.08-0.31,0.08-0.48,0.02c-1.16-0.43-2.53-3.61-3.86-6.68
			c-1.52-3.52-2.95-6.84-4.43-7.11c-0.41-0.07-0.78,0.07-1.13,0.43c-1.68,1.73-1.68,4.83-1.68,7.83c0,2.61,0,5.08-1.08,6.41
			c-0.9,1.11-2.18,0.85-3.67,0.54c-2.16-0.44-4.85-0.99-6.99,2.92c-1.57,2.87-2.09,6.38-2.58,9.76c-0.59,4.01-1.15,7.8-3.49,9.39
			c-0.37,0.25-0.72,0.3-1.07,0.17c-2.15-0.82-3.91-7.96-5.2-13.18c-0.97-3.92-1.5-5.98-2.08-6.35c-0.05-0.03-0.12-0.08-0.17-0.12
			c-0.1,0.13-0.2,0.27-0.32,0.39c0.08,0.06,0.17,0.12,0.23,0.16C87.21,36.59,87.93,39.53,88.63,42.36z"/>
		<path class="st5" d="M189.25,89.76c-1.21-2.81-11.9-27.41-15.19-27.41c-0.03,0-0.06,0-0.09,0c-2.96,0-9.98-8.02-12.87-13.14
			c-0.42-0.75-0.88-1.62-1.36-2.53c-1.12-2.12-2.31-4.38-3.53-6.08c-0.09,0.15-0.19,0.3-0.3,0.44c1.17,1.68,2.34,3.9,3.39,5.88
			c0.49,0.92,0.95,1.79,1.37,2.54c2.68,4.75,9.93,13.4,13.31,13.4c0.03,0,0.06,0,0.1,0c2.21,0,9.85,15.85,14.57,26.76H38.74
			c-0.04-9.59,5.92-20.52,8.4-22.91c2.53-2.44,10.82-16.03,10.86-23.62c0.02-3.78,1.24-4.25,2.94-4.9c1.61-0.62,3.61-1.38,5.17-5.13
			c1.41-3.37,2.6-7.55,3.65-11.23c1.1-3.85,2.34-8.22,3.1-8.3c1.43-0.14,2.45,1.13,3.66,8.23c0.53,3.1,2.18,6,4.01,8.4
			c0.12-0.12,0.26-0.22,0.4-0.33c-1.81-2.38-3.42-5.23-3.92-8.16c-1.15-6.75-2.17-8.85-4.21-8.64c-1.05,0.1-1.93,3.04-3.54,8.66
			c-1.05,3.67-2.23,7.83-3.63,11.18c-1.48,3.55-3.29,4.24-4.89,4.85c-1.74,0.67-3.24,1.24-3.26,5.36
			c-0.04,7.47-8.21,20.86-10.7,23.27c-2.55,2.46-8.7,13.74-8.55,23.52l0,0.25H189.4L189.25,89.76z"/>
	</g>
</g>
<g>
	<circle class="st6" cx="83.52" cy="33.18" r="4.25"/>
	<circle class="st6" cx="152.57" cy="38.43" r="4.25"/>
	<path class="st6" d="M149.72,41.58c-2.87,4.8-8.81,14.2-12.29,13.87s-9.53-24.98-12.56-23.49c-3.03,1.49-6.78-16.54-9.82-13.4
		s-0.33,11.25-2.74,14.23c-2.41,2.98-7.15-2.94-10.63,3.42c-3.48,6.36-1.76,16.26-6.15,19.24c-4.39,2.98-7.07-18.37-8.62-19.35"/>
</g>
</svg>
