<?xml version="1.0" encoding="utf-8"?>
<!-- Generator: Adobe Illustrator 24.3.0, SVG Export Plug-In . SVG Version: 6.00 Build 0)  -->
<svg version="1.1" id="Layer_1" xmlns="http://www.w3.org/2000/svg" xmlns:xlink="http://www.w3.org/1999/xlink" x="0px" y="0px"
	 viewBox="0 0 198 122.69" style="enable-background:new 0 0 198 122.69;" xml:space="preserve">
<style type="text/css">
	.st0{display:none;fill:#282526;}
	.st1{display:none;}
	.st2{display:inline;fill:none;stroke:#564547;stroke-width:0.5;stroke-miterlimit:10;}
	.st3{display:inline;fill:none;stroke:#A3A3AC;stroke-miterlimit:10;}
	.st4{fill:none;stroke:#7C6A6C;stroke-width:0.5;stroke-miterlimit:10;}
	.st5{fill:none;stroke:#DCDCEA;stroke-miterlimit:10;}
</style>
<rect y="-0.72" class="st0" width="198" height="123.41"/>
<g class="st1">
	<circle class="st2" cx="99" cy="58.98" r="49.76"/>
	
		<ellipse transform="matrix(0.9416 -0.3369 0.3369 0.9416 -3.0371 28.0085)" class="st2" cx="79.2" cy="22.76" rx="10.27" ry="5.06"/>
	
		<ellipse transform="matrix(0.7433 -0.669 0.669 0.7433 -25.9085 106.0259)" class="st2" cx="125.19" cy="86.77" rx="10.27" ry="5.06"/>
	<ellipse transform="matrix(0.99 -0.1409 0.1409 0.99 -12.9182 15.5244)" class="st2" cx="103.2" cy="99.01" rx="10.27" ry="6.97"/>
	
		<ellipse transform="matrix(0.9003 -0.4354 0.4354 0.9003 -9.9462 32.7064)" class="st2" cx="66.41" cy="38.06" rx="8.77" ry="5.68"/>
	
		<ellipse transform="matrix(0.9003 -0.4354 0.4354 0.9003 -5.8077 39.3957)" class="st2" cx="83.07" cy="32.37" rx="5.17" ry="3.82"/>
	
		<ellipse transform="matrix(0.9003 -0.4354 0.4354 0.9003 -26.0086 55.5865)" class="st2" cx="108.31" cy="84.56" rx="5.17" ry="3.82"/>
	
		<ellipse transform="matrix(0.4535 -0.8913 0.8913 0.4535 47.3412 122.7152)" class="st2" cx="123.73" cy="22.76" rx="3.82" ry="5.17"/>
	
		<ellipse transform="matrix(0.4535 -0.8913 0.8913 0.4535 41.6699 135.9561)" class="st2" cx="131.69" cy="34" rx="4.58" ry="5.17"/>
	
		<ellipse transform="matrix(0.4535 -0.8913 0.8913 0.4535 -27.4746 118.8031)" class="st2" cx="83.13" cy="81.8" rx="4.58" ry="5.17"/>
	<ellipse class="st2" cx="73.44" cy="60.43" rx="3.76" ry="2.61"/>
	<ellipse class="st2" cx="107.74" cy="53.65" rx="3.76" ry="3.23"/>
	
		<ellipse transform="matrix(0.4535 -0.8913 0.8913 0.4535 34.9668 120.6885)" class="st2" cx="115.89" cy="31.83" rx="5.42" ry="6"/>
	<path class="st2" d="M49.32,56.13c0,0,3.34,3.86,8.11,3.66c4.77-0.2,9.84-4.87,16.24-4.87s7.61,6.1,16.75,4.88
		c9.13-1.23,10.25-10.87,16.44-11.27c6.19-0.41,15.93,11.37,21.01,10.46s14.41-8.12,15.73-12.18c1.32-4.06,0.88-8.06,0.88-8.06"/>
	<path class="st2" d="M64.18,94.54c0,0-3.41-5.72,3.29-6.74c6.7-1.01,15.12,3.25,19.89,0.61c4.77-2.64,8.73-11.87,14.41-12.79
		s8.12-0.61,15.12,1.83c6.28,2.18,23.85-1.93,24.36-13.19c0.41-6.43,3.76-11.06,4.97-11.87c1.22-0.81,1.8-1.96,1.8-1.96"/>
</g>
<g class="st1">
	<circle class="st3" cx="74.95" cy="39.38" r="4.25"/>
	<circle class="st3" cx="111.24" cy="26.55" r="4.25"/>
	<circle class="st3" cx="143.9" cy="54.34" r="4.25"/>
	<line class="st3" x1="115.1" y1="28.33" x2="140.44" y2="51.87"/>
	<line class="st3" x1="107.54" y1="28.65" x2="79.2" y2="39.38"/>
</g>
<polyline class="st0" points="198,122.69 0,122.69 0,-0.72 198,-0.72 "/>
<g>
	<circle class="st4" cx="99" cy="58.98" r="49.76"/>
	
		<ellipse transform="matrix(0.9416 -0.3369 0.3369 0.9416 -3.0371 28.0085)" class="st4" cx="79.2" cy="22.76" rx="10.27" ry="5.06"/>
	
		<ellipse transform="matrix(0.7433 -0.669 0.669 0.7433 -25.9085 106.0259)" class="st4" cx="125.19" cy="86.77" rx="10.27" ry="5.06"/>
	<ellipse transform="matrix(0.99 -0.1409 0.1409 0.99 -12.9182 15.5244)" class="st4" cx="103.2" cy="99.01" rx="10.27" ry="6.97"/>
	
		<ellipse transform="matrix(0.9003 -0.4354 0.4354 0.9003 -9.9462 32.7064)" class="st4" cx="66.41" cy="38.06" rx="8.77" ry="5.68"/>
	
		<ellipse transform="matrix(0.9003 -0.4354 0.4354 0.9003 -5.8077 39.3957)" class="st4" cx="83.07" cy="32.37" rx="5.17" ry="3.82"/>
	
		<ellipse transform="matrix(0.9003 -0.4354 0.4354 0.9003 -26.0086 55.5865)" class="st4" cx="108.31" cy="84.56" rx="5.17" ry="3.82"/>
	
		<ellipse transform="matrix(0.4535 -0.8913 0.8913 0.4535 47.3412 122.7152)" class="st4" cx="123.73" cy="22.76" rx="3.82" ry="5.17"/>
	
		<ellipse transform="matrix(0.4535 -0.8913 0.8913 0.4535 41.6699 135.9561)" class="st4" cx="131.69" cy="34" rx="4.58" ry="5.17"/>
	
		<ellipse transform="matrix(0.4535 -0.8913 0.8913 0.4535 -27.4746 118.8031)" class="st4" cx="83.13" cy="81.8" rx="4.58" ry="5.17"/>
	<ellipse class="st4" cx="73.44" cy="60.43" rx="3.76" ry="2.61"/>
	<ellipse class="st4" cx="107.74" cy="53.65" rx="3.76" ry="3.23"/>
	
		<ellipse transform="matrix(0.4535 -0.8913 0.8913 0.4535 34.9668 120.6885)" class="st4" cx="115.89" cy="31.83" rx="5.42" ry="6"/>
	<path class="st4" d="M49.32,56.13c0,0,3.34,3.86,8.11,3.66c4.77-0.2,9.84-4.87,16.24-4.87s7.61,6.1,16.75,4.88
		c9.13-1.23,10.25-10.87,16.44-11.27c6.19-0.41,15.93,11.37,21.01,10.46s14.41-8.12,15.73-12.18c1.32-4.06,0.88-8.06,0.88-8.06"/>
	<path class="st4" d="M64.18,94.54c0,0-3.41-5.72,3.29-6.74c6.7-1.01,15.12,3.25,19.89,0.61c4.77-2.64,8.73-11.87,14.41-12.79
		s8.12-0.61,15.12,1.83c6.28,2.18,23.85-1.93,24.36-13.19c0.41-6.43,3.76-11.06,4.97-11.87c1.22-0.81,1.8-1.96,1.8-1.96"/>
</g>
<g>
	<circle class="st5" cx="74.95" cy="39.38" r="4.25"/>
	<circle class="st5" cx="111.24" cy="26.55" r="4.25"/>
	<circle class="st5" cx="143.9" cy="54.34" r="4.25"/>
	<line class="st5" x1="115.1" y1="28.33" x2="140.44" y2="51.87"/>
	<line class="st5" x1="107.54" y1="28.65" x2="79.2" y2="39.38"/>
</g>
</svg>
