<?xml version="1.0" encoding="utf-8"?>
<!-- Generator: Adobe Illustrator 24.3.0, SVG Export Plug-In . SVG Version: 6.00 Build 0)  -->
<svg version="1.1" id="Layer_1" xmlns="http://www.w3.org/2000/svg" xmlns:xlink="http://www.w3.org/1999/xlink" x="0px" y="0px"
	 viewBox="0 0 114.42 71.65" style="enable-background:new 0 0 114.42 71.65;" xml:space="preserve">
<style type="text/css">
	.st0{fill:none;stroke:#7C6B6D;stroke-width:0.5;stroke-miterlimit:10;}
</style>
<g>
	<path class="st0" d="M53.48,27.82l-22.42,9.19c-1.22,0.5-2.63-0.09-3.13-1.31l-4.54-11.08c-0.5-1.22,0.09-2.63,1.31-3.13
		l22.42-9.19c1.22-0.5,2.63,0.09,3.13,1.31l4.54,11.08C55.29,25.91,54.7,27.32,53.48,27.82z"/>
	<path class="st0" d="M31.25,25.47l-2.34-5.71L31.25,25.47z"/>
	<line class="st0" x1="24.81" y1="28.11" x2="31.25" y2="25.47"/>
	<circle class="st0" cx="43.82" cy="22.72" r="5.12"/>
	
		<rect x="31.19" y="32.22" transform="matrix(0.9253 -0.3792 0.3792 0.9253 -10.6071 14.7618)" class="st0" width="1.96" height="4.16"/>
	
		<rect x="34.31" y="30.95" transform="matrix(0.9253 -0.3792 0.3792 0.9253 -9.8893 15.8492)" class="st0" width="1.96" height="4.16"/>
	
		<rect x="35.96" y="32.28" transform="matrix(0.9253 -0.3792 0.3792 0.9253 -9.4426 18.7267)" class="st0" width="13.71" height="2.11"/>
</g>
<circle class="st0" cx="43.08" cy="98.82" r="10.94"/>
<circle class="st0" cx="73.47" cy="86.37" r="10.94"/>
<path class="st0" d="M99.24,63.98l-9.41-22.95c-0.76-1.84-2.85-2.72-4.69-1.97L40.57,57.33l4.58,11.18l-4.17,1.71L36.4,59.04
	l-9.77,4c-1.84,0.76-2.72,2.85-1.97,4.69l9.91,24.19c1.12-1.38,2.59-2.51,4.35-3.24c4.67-1.92,9.9-0.35,12.83,3.48l10.84-4.44
	c-0.6-4.78,2.03-9.57,6.7-11.48c4.67-1.92,9.9-0.35,12.83,3.48l10.4-4.26C91.94,70.68,94.57,65.9,99.24,63.98z"/>
<circle class="st0" cx="103.39" cy="74.11" r="10.94"/>
<line class="st0" x1="47.75" y1="74.11" x2="51.6" y2="83.51"/>
<line class="st0" x1="49.31" y1="73.46" x2="53.17" y2="82.87"/>
<line class="st0" x1="50.89" y1="72.82" x2="54.74" y2="82.22"/>
<line class="st0" x1="52.46" y1="72.17" x2="56.32" y2="81.57"/>
<line class="st0" x1="54.03" y1="71.53" x2="57.88" y2="80.93"/>
<line class="st0" x1="55.61" y1="70.89" x2="59.46" y2="80.29"/>
<line class="st0" x1="57.18" y1="70.24" x2="61.04" y2="79.64"/>
<line class="st0" x1="65.98" y1="57.69" x2="86.53" y2="49.26"/>
<circle class="st0" cx="59.66" cy="60.28" r="2.68"/>
<rect x="45.53" y="33.55" transform="matrix(0.9253 -0.3792 0.3792 0.9253 -13.0582 21.1106)" class="st0" width="3.05" height="20.3"/>
<polygon class="st0" points="82.1,11.54 79.61,9.86 78.27,11.85 76.04,12.51 75.85,10.99 77.98,8.07 75.55,6.3 72.71,10.2 
	73.22,14.01 66.64,22.87 68.74,45.68 71.4,44.61 69.73,23.74 75.69,15.72 80.15,14.44 "/>
<line class="st0" x1="32.86" y1="60.49" x2="2.81" y2="42.03"/>
<circle class="st0" cx="1.76" cy="41.49" r="1.42"/>
</svg>
