<?xml version="1.0" encoding="utf-8"?>
<!-- Generator: Adobe Illustrator 24.3.0, SVG Export Plug-In . SVG Version: 6.00 Build 0)  -->
<svg version="1.1" id="Layer_1" xmlns="http://www.w3.org/2000/svg" xmlns:xlink="http://www.w3.org/1999/xlink" x="0px" y="0px"
	 viewBox="0 0 512 1024" style="enable-background:new 0 0 512 1024;" xml:space="preserve">
<style type="text/css">
	.st0{fill:#A3A3AC;}
	.st1{fill:#DCDCEB;}
</style>
<g>
	
		<image style="overflow:visible;enable-background:new    ;" width="427" height="456" xlink:href="9C74794700702F5E.png"  transform="matrix(1 0 0 1 49 35)">
	</image>
	<g>
		<path class="st0" d="M362.4,317c-17.7,0-33.6,7.6-44.8,19.7l-110.3-62.9c1.7-5.6,2.6-11.6,2.6-17.8c0-6.2-0.9-12.1-2.6-17.8
			l110.3-62.9c11.1,12.1,27.1,19.7,44.8,19.7c33.6,0,61-27.4,61-61s-27.4-61-61-61s-61,27.4-61,61c0,5,0.6,9.8,1.7,14.5l-111.8,63.8
			c-11-10.6-25.9-17.2-42.4-17.2c-33.6,0-61,27.4-61,61s27.4,61,61,61c16.5,0,31.4-6.6,42.4-17.2l111.8,63.8
			c-1.1,4.6-1.8,9.5-1.8,14.5c0,33.6,27.4,61,61,61s61-27.4,61-61C423.4,344.4,396,317,362.4,317z"/>
	</g>
</g>
<g>
	
		<image style="overflow:visible;" width="457" height="486" xlink:href="9C74794700702F5B.png"  transform="matrix(1 0 0 1 41 539)">
	</image>
	<g>
		<g>
			<g>
				<path class="st1" d="M362.4,829c-17.7,0-33.6,7.6-44.8,19.7l-110.3-62.9c1.7-5.6,2.6-11.6,2.6-17.8c0-6.2-0.9-12.1-2.6-17.8
					l110.3-62.9c11.1,12.1,27.1,19.7,44.8,19.7c33.6,0,61-27.4,61-61s-27.4-61-61-61s-61,27.4-61,61c0,5,0.6,9.8,1.7,14.5
					l-111.8,63.8c-11-10.6-25.9-17.2-42.4-17.2c-33.6,0-61,27.3-61,61s27.4,61,61,61c16.5,0,31.4-6.6,42.4-17.2l111.8,63.8
					c-1.1,4.6-1.8,9.5-1.8,14.5c0,33.6,27.4,61,61,61s61-27.4,61-61C423.4,856.3,396,829,362.4,829z"/>
			</g>
		</g>
	</g>
</g>
</svg>
