{
    "asset" : {
        "generator" : "Khronos glTF Blender I/O v1.4.40",
        "version" : "2.0"
    },
    "scene" : 0,
    "scenes" : [
        {
            "name" : "Scene",
            "nodes" : [
                0,
                1
            ]
        }
    ],
    "nodes" : [
        {
            "mesh" : 0,
            "name" : "Manhattan_Terrain",
            "rotation" : [
                0.7071068286895752,
                0,
                0,
                0.7071067094802856
            ]
        },
        {
            "mesh" : 1,
            "name" : "Manhattan_v4_0.001",
            "rotation" : [
                0.7071068286895752,
                0,
                0,
                0.7071067094802856
            ]
        }
    ],
    "materials" : [
        {
            "doubleSided" : true,
            "name" : "CityEngineTerrainMaterial.021",
            "pbrMetallicRoughness" : {
                "baseColorTexture" : {
                    "index" : 0,
                    "texCoord" : 0
                },
                "metallicFactor" : 0
            }
        },
        {
            "doubleSided" : true,
            "name" : "CityEngineTerrainMaterialSide.006",
            "pbrMetallicRoughness" : {
                "baseColorFactor" : [
                    0.19220000505447388,
                    0.050999999046325684,
                    0.050999999046325684,
                    1
                ],
                "metallicFactor" : 0
            }
        },
        {
            "doubleSided" : true,
            "name" : "wire_134006006",
            "pbrMetallicRoughness" : {
                "roughnessFactor" : 0.12999999523162842
            }
        }
    ],
    "meshes" : [
        {
            "name" : "Manhattan_Terrain",
            "primitives" : [
                {
                    "attributes" : {
                        "POSITION" : 0,
                        "TEXCOORD_0" : 1
                    },
                    "indices" : 2,
                    "material" : 0
                },
                {
                    "attributes" : {
                        "POSITION" : 3,
                        "TEXCOORD_0" : 4
                    },
                    "indices" : 5,
                    "material" : 1
                }
            ]
        },
        {
            "name" : "Manhattan_v4_0.001",
            "primitives" : [
                {
                    "attributes" : {
                        "POSITION" : 6,
                        "TEXCOORD_0" : 7
                    },
                    "indices" : 8,
                    "material" : 2
                }
            ]
        }
    ],
    "textures" : [
        {
            "sampler" : 0,
            "source" : 0
        }
    ],
    "images" : [
        {
            "mimeType" : "image/jpeg",
            "name" : "texture",
            "uri" : "texture.jpg"
        }
    ],
    "accessors" : [
        {
            "bufferView" : 0,
            "componentType" : 5126,
            "count" : 3141,
            "max" : [
                3462,
                3510,
                13
            ],
            "min" : [
                -3462,
                -3510,
                -59
            ],
            "type" : "VEC3"
        },
        {
            "bufferView" : 1,
            "componentType" : 5126,
            "count" : 3141,
            "type" : "VEC2"
        },
        {
            "bufferView" : 2,
            "componentType" : 5123,
            "count" : 16626,
            "type" : "SCALAR"
        },
        {
            "bufferView" : 3,
            "componentType" : 5126,
            "count" : 1476,
            "max" : [
                3462,
                3510,
                200.00120544433594
            ],
            "min" : [
                -3462,
                -3510,
                -59
            ],
            "type" : "VEC3"
        },
        {
            "bufferView" : 4,
            "componentType" : 5126,
            "count" : 1476,
            "type" : "VEC2"
        },
        {
            "bufferView" : 5,
            "componentType" : 5123,
            "count" : 4428,
            "type" : "SCALAR"
        },
        {
            "bufferView" : 6,
            "componentType" : 5126,
            "count" : 533908,
            "max" : [
                3531,
                3569.5,
                11
            ],
            "min" : [
                -3565,
                -3575.5,
                -538
            ],
            "type" : "VEC3"
        },
        {
            "bufferView" : 7,
            "componentType" : 5126,
            "count" : 533908,
            "type" : "VEC2"
        },
        {
            "bufferView" : 8,
            "componentType" : 5125,
            "count" : 1673253,
            "type" : "SCALAR"
        }
    ],
    "bufferViews" : [
        {
            "buffer" : 0,
            "byteLength" : 37692,
            "byteOffset" : 0
        },
        {
            "buffer" : 0,
            "byteLength" : 25128,
            "byteOffset" : 37692
        },
        {
            "buffer" : 0,
            "byteLength" : 33252,
            "byteOffset" : 62820
        },
        {
            "buffer" : 0,
            "byteLength" : 17712,
            "byteOffset" : 96072
        },
        {
            "buffer" : 0,
            "byteLength" : 11808,
            "byteOffset" : 113784
        },
        {
            "buffer" : 0,
            "byteLength" : 8856,
            "byteOffset" : 125592
        },
        {
            "buffer" : 0,
            "byteLength" : 6406896,
            "byteOffset" : 134448
        },
        {
            "buffer" : 0,
            "byteLength" : 4271264,
            "byteOffset" : 6541344
        },
        {
            "buffer" : 0,
            "byteLength" : 6693012,
            "byteOffset" : 10812608
        }
    ],
    "samplers" : [
        {
            "magFilter" : 9729,
            "minFilter" : 9986
        }
    ],
    "buffers" : [
        {
            "byteLength" : 17505620,
            "uri" : "scene.bin"
        }
    ]
}
