<?xml version="1.0" encoding="utf-8"?>
<!-- Generator: Adobe Illustrator 24.3.0, SVG Export Plug-In . SVG Version: 6.00 Build 0)  -->
<svg version="1.1" id="Layer_1" xmlns="http://www.w3.org/2000/svg" xmlns:xlink="http://www.w3.org/1999/xlink" x="0px" y="0px"
	 viewBox="0 0 114.4 71.7" style="enable-background:new 0 0 114.4 71.7;" xml:space="preserve">
<style type="text/css">
	.st0{fill:none;stroke:#7C6B6D;stroke-width:0.5;stroke-miterlimit:10;}
</style>
<polyline class="st0" points="-98.4,-29 -96,-28.3 -86.6,-32.8 -83.7,-32.8 -76.2,-35.9 -76.2,-38.3 -59.3,-49.4 -53.5,-48.5 
	-49.1,-49.4 -47.9,-48.5 -46.6,-49.4 -42.3,-48.6 -27.3,-49.4 -25,-50.2 -16.8,-48.7 -6,-42.8 2.8,-37.7 3.3,-36.3 15.9,-32.8 "/>
<polyline class="st0" points="-62.9,-46.4 -64.2,-44 -62.2,-44 -62.6,-43.4 -57.2,-46.4 -56.6,-44 -51.8,-45.6 -51.1,-42.3 
	-46.9,-45.5 -45.9,-44 -44.8,-46.8 -43.1,-46.2 -42.3,-47.7 -41.3,-46.4 -38.4,-47.7 -38,-46.2 -36.5,-47.2 -35.7,-46.2 -32.5,-47 
	-29.5,-45 -26.8,-47.4 -24.3,-46.1 -19.2,-45.4 -19.4,-47.3 -17.5,-45.9 -17.5,-47.7 -12.6,-45 -9.6,-44.8 "/>
<polyline class="st0" points="-55.5,-43.7 -63.7,-37.8 -64.2,-36.7 -66.4,-34.2 -69.4,-34 -73.7,-31.4 -75.1,-31.8 -83,-29 "/>
<polyline class="st0" points="-64.2,-42.3 -67.4,-39.7 -71.3,-38.2 -73.7,-37.2 -77.2,-33.5 -81.7,-31.6 "/>
<polyline class="st0" points="-48.5,-43 -49.4,-40.5 -47.8,-36.9 -49.4,-34 -48.6,-30.5 "/>
<polyline class="st0" points="-42.8,-45 -43.6,-41.9 -42.8,-40.5 -44.4,-38.8 -42.1,-36.8 "/>
<polyline class="st0" points="-35,-44.7 -35,-42.5 -36.4,-40.5 -36.9,-37.8 -33.6,-36.3 -34.6,-34.2 -32.2,-32.3 "/>
<polyline class="st0" points="-28.9,-45.5 -27.3,-40.7 -28.9,-38.5 -24.3,-33.4 "/>
<polyline class="st0" points="-25.3,-45.5 -19.6,-39.5 -12.1,-35.9 "/>
<polyline class="st0" points="-15.4,-46 -14.6,-44 -9.6,-41.3 -8.4,-38.5 -2.3,-36.3 0.3,-33.8 "/>
<rect x="15.9" y="12.1" transform="matrix(0.866 0.5 -0.5 0.866 10.9369 -7.909)" class="st0" width="8.6" height="8.6"/>
<rect x="73.5" y="5.1" transform="matrix(0.9776 0.2104 -0.2104 0.9776 3.7179 -16.1556)" class="st0" width="8.6" height="8.6"/>
<rect x="76.5" y="55.6" transform="matrix(0.992 -0.1265 0.1265 0.992 -6.935 10.7057)" class="st0" width="8.6" height="8.6"/>
<rect x="47" y="34.2" transform="matrix(0.366 0.9306 -0.9306 0.366 68.4119 -23.3268)" class="st0" width="8.6" height="8.6"/>
<rect x="108.8" y="-0.8" transform="matrix(0.866 0.5 -0.5 0.866 16.9149 -56.0995)" class="st0" width="8.6" height="8.6"/>
<rect x="111.8" y="49.7" transform="matrix(0.366 0.9306 -0.9306 0.366 123.9266 -73.8111)" class="st0" width="8.6" height="8.6"/>
<rect x="82.4" y="28.4" transform="matrix(0.912 -0.4102 0.4102 0.912 -5.7714 38.4293)" class="st0" width="8.6" height="8.6"/>
<rect x="15.9" y="59.2" transform="matrix(0.992 -0.1265 0.1265 0.992 -7.8798 3.0706)" class="st0" width="8.6" height="8.6"/>
<polygon class="st0" points="23.2,35.1 20.4,43.2 30.6,39.2 "/>
<polygon class="st0" points="54.6,8.5 46.7,11.9 56.4,16.8 "/>
<polygon class="st0" points="104.3,26.2 112.4,23.3 102.9,17.8 "/>
<polygon class="st0" points="55.2,64.3 51.5,56.5 47,66.5 "/>
<circle class="st0" cx="65.3" cy="26.8" r="3.3"/>
<circle class="st0" cx="39.9" cy="25" r="4.6"/>
<circle class="st0" cx="71.1" cy="48.3" r="1.3"/>
<circle class="st0" cx="36.9" cy="52.6" r="3"/>
<circle class="st0" cx="7" cy="26.2" r="4.2"/>
<circle class="st0" cx="8.4" cy="48" r="2.8"/>
<circle class="st0" cx="6.7" cy="62.5" r="1"/>
<circle class="st0" cx="6.9" cy="6.6" r="3.1"/>
<circle class="st0" cx="32.5" cy="8" r="1.4"/>
<circle class="st0" cx="94.5" cy="5.9" r="1.6"/>
<circle class="st0" cx="103.6" cy="41.7" r="4.1"/>
<circle class="st0" cx="100.2" cy="61.3" r="4.1"/>
</svg>
