<?xml version="1.0" encoding="utf-8"?>
<!-- Generator: Adobe Illustrator 24.3.0, SVG Export Plug-In . SVG Version: 6.00 Build 0)  -->
<svg version="1.1" id="Layer_1" xmlns="http://www.w3.org/2000/svg" xmlns:xlink="http://www.w3.org/1999/xlink" x="0px" y="0px"
	 viewBox="0 0 114.4 71.7" style="enable-background:new 0 0 114.4 71.7;" xml:space="preserve">
<style type="text/css">
	.st0{fill-rule:evenodd;clip-rule:evenodd;fill:none;stroke:#7C6B6D;stroke-width:0.5;stroke-miterlimit:10;}
</style>
<g>
	<path class="st0" d="M57.5,4.5c17.3,0,31.4,14,31.4,31.4c0,17.3-14,31.4-31.4,31.4c-17.3,0-31.4-14-31.4-31.4
		C26.1,18.5,40.2,4.5,57.5,4.5L57.5,4.5z"/>
	<path class="st0" d="M57.5,4.5c8.1,0,15.5,3.1,21.1,8.2l-1.1,0.5l-0.6,0.7l0.1,0.8l0.8,0.1l0.5,1.1l1.3-0.5l0.2,1.5h-0.4l-1.1-0.2
		L77,16.8l-1.2,1.6l-1.7,0.3L74,20.1l0.7,0.2l-0.2,0.9l-1.6-0.3l-1.5,0.3L71,22.1l0.3,1.8l0.9,0.4l1.5,0l1-0.1l0.3-0.8l1.6-2l1,0.2
		l1-0.9l0.2,0.7l2.5,1.7L81,23.4l-1.1-0.1l0.4,0.6l0.7,0.1l0.8-0.3l0-1l0.4-0.2l-0.3-0.3l-1.7-0.9l-0.4-1.2h1.4l0.4,0.4l1.2,1l0,1.2
		l1.2,1.3l0.5-1.8l0.9-0.5l0.2,1.5l0.8,0.9h0.3c0.3,0.9,0.7,1.8,0.9,2.7h-1.5l-1.6-1.2L82.9,26v1h-0.5l-0.6-0.4L79,25.8V24l-3.6,0.3
		l-1.1,0.6h-1.4l-0.7-0.1l-1.7,1v1.8l-3.5,2.6l0.3,1.1h0.7l-0.2,1l-0.5,0.2l0,2.7l3.1,3.5h1.3l0.1-0.2h2.4l0.7-0.6h1.4l0.7,0.7
		l2,0.2l-0.3,2.7l2.3,4l-1.2,2.3l0.1,1.1l0.9,0.9v2.6l1.2,1.6v1.6c-5.8,7.1-14.6,11.7-24.4,11.7c-16.2,0-29.6-12.3-31.2-28.2l0,0
		c0-0.2,0-0.5-0.1-0.7l0,0c-0.1-0.8-0.1-1.6-0.1-2.5v-0.2v-0.4v-0.5l0-0.5l0-0.3c0-0.2,0-0.4,0-0.6l0-0.1c0.3-3.5,1.1-6.9,2.5-10
		v1.7l1.3,0.6v2.5l1.3,2.2l1,0.2l0.1-0.7L31.2,28L31,26.1h0.7L32,28l1.8,2.6l-0.5,0.8l1.1,1.7l2.8,0.7v-0.5l1.1,0.2l-0.1,0.8
		l0.9,0.2l1.3,0.4l1.9,2.2l2.4,0.2l0.2,2l-1.7,1.2l-0.1,1.8l-0.2,1.1l2.4,3l0.2,1c0,0,0.9,0.2,1,0.2c0.1,0,2,1.4,2,1.4v5.5l0.7,0.2
		l-0.5,2.5l1.1,1.5l-0.2,2.5l1.5,2.6l1.9,1.7l1.9,0l0.2-0.6l-1.4-1.2l0.1-0.6l0.3-0.7l0.1-0.7l-0.9,0l-0.5-0.6l0.8-0.8l0.1-0.6
		l-0.9-0.2l0.1-0.5l1.3-0.2l1.9-0.9l0.6-1.2l2-2.5l-0.5-2l0.6-1.1l1.8,0.1l1.2-1l0.4-3.9l1.4-1.7l0.3-1.1L62.7,43l-0.8-1.4l-2.8,0
		l-2.2-0.9l-0.1-1.6l-0.7-1.3l-2,0L52.7,36l-1-0.5l-0.1,0.6l-1.9,0.1l-0.7-1l-2-0.4l-1.6,1.9l-2.6-0.4l-0.2-2.9l-1.9-0.3l0.7-1.4
		l-0.2-0.8l-2.5,1.6l-1.5-0.2l-0.6-1.2l0.3-1.2l0.9-1.6l1.9-1h3.8l0,1.2l1.4,0.6l-0.1-2l1-1l2-1.3l0.1-0.9l2-2.1l2.1-1.2L52,20.6
		l1.4-1.3l0.5,0.1l0.2,0.3l0.5-0.6l0.1-0.1l-0.6-0.1l-0.6-0.2v-0.6l0.3-0.3h0.7L55,18l0.3,0.6l0.3-0.1v0l0.1,0l1-0.1l0.1-0.5
		l0.6,0.1v0.5l-0.5,0.4h0l0.1,0.6l1.8,0.5l0,0l0.4,0l0-0.8l-1.4-0.6l-0.1-0.4l1.2-0.4l0.1-1.1L57.7,16l-0.1-1.9l-1.7,0.8h-0.6
		l0.1-1.4l-2.3-0.5l-0.9,0.7v2.2l-1.7,0.5l-0.7,1.4l-0.7,0.1v-1.8l-1.6-0.2l-0.8-0.5l-0.3-1.2l2.9-1.7l1.4-0.4l0.1,0.9l0.8,0
		l0.1-0.5l0.8-0.1l0-0.2L52.1,12L52,11.6l1-0.1l0.6-0.6l0,0h0l0.2-0.2l2.1-0.3l0.9,0.8l-2.4,1.3l3.1,0.7l0.4-1h1.3l0.5-0.9l-1-0.2
		V9.8l-3-1.3l-2.1,0.2l-1.2,0.6l0.1,1.5l-1.2-0.2l-0.2-0.8l1.2-1.1l-2.1-0.1l-0.6,0.2l-0.3,0.7l0.8,0.1L50,10.5l-1.3,0.1l-0.2,0.5
		l-2,0.1c0,0-0.1-1.1-0.1-1.1c-0.1,0,1.5,0,1.5,0l1.2-1.1l-0.6-0.3l-0.9,0.8l-1.4-0.1l-0.8-1.2h-1.8l-1.9,1.4h1.7l0.2,0.5l-0.5,0.4
		l1.9,0.1l0.3,0.7l-2.2-0.1L43,10.6l-1.3-0.3l-0.7-0.4l-1.2,0C44.8,6.5,50.9,4.5,57.5,4.5L57.5,4.5z M72.9,15.1l0.3-0.4l1.1-0.2
		l0.3,1.3l0.5,0.9l0.4,0.4l0.7,0.3l-0.6,0.8l-1.2,0.1h-0.9l0.1-1.1l0.8-0.1l-0.1-0.5L73.4,16l-0.5-0.3V15.1L72.9,15.1z M71.1,17.1
		l0.6-1l0.9-0.2l0.6,0.3l-0.1,0.7l-1.3,0.9h-0.7V17.1L71.1,17.1z M53.8,21.1l-0.7,0.1l0-0.5l0.3-0.4l0.4,0.3L53.8,21.1z M56.1,20.3
		l-0.5,0l-0.1,0.4L55.2,21L54.6,21c0-0.1,0-0.2,0-0.2h-0.2v-0.5h0.9l0.2-0.5h0.4l0.4,0.1L56.1,20.3z"/>
</g>
</svg>
