{
    "asset" : {
        "generator" : "Khronos glTF Blender I/O v1.4.40",
        "version" : "2.0"
    },
    "scene" : 0,
    "scenes" : [
        {
            "name" : "Scene",
            "nodes" : [
                0,
                1
            ]
        }
    ],
    "nodes" : [
        {
            "mesh" : 0,
            "name" : "Dubai_Terrain",
            "rotation" : [
                0.7071068286895752,
                0,
                0,
                0.7071067094802856
            ]
        },
        {
            "mesh" : 1,
            "name" : "Dubai_Buildings",
            "rotation" : [
                0.7071068286895752,
                0,
                0,
                0.7071067094802856
            ]
        }
    ],
    "materials" : [
        {
            "doubleSided" : true,
            "name" : "CityEngineTerrainMaterial.020",
            "pbrMetallicRoughness" : {
                "baseColorTexture" : {
                    "index" : 0,
                    "texCoord" : 0
                },
                "metallicFactor" : 0
            }
        },
        {
            "doubleSided" : true,
            "name" : "CityEngineTerrainMaterialSide.005",
            "pbrMetallicRoughness" : {
                "baseColorFactor" : [
                    0.19220000505447388,
                    0.050999999046325684,
                    0.050999999046325684,
                    1
                ],
                "metallicFactor" : 0
            }
        },
        {
            "doubleSided" : true,
            "name" : "wire_224198087.002",
            "pbrMetallicRoughness" : {
                "roughnessFactor" : 0.15000000596046448
            }
        }
    ],
    "meshes" : [
        {
            "name" : "Dubai_Terrain",
            "primitives" : [
                {
                    "attributes" : {
                        "POSITION" : 0,
                        "TEXCOORD_0" : 1
                    },
                    "indices" : 2,
                    "material" : 0
                },
                {
                    "attributes" : {
                        "POSITION" : 3,
                        "TEXCOORD_0" : 4
                    },
                    "indices" : 5,
                    "material" : 1
                }
            ]
        },
        {
            "name" : "Dubai_Buildings",
            "primitives" : [
                {
                    "attributes" : {
                        "POSITION" : 6,
                        "TEXCOORD_0" : 7
                    },
                    "indices" : 8,
                    "material" : 2
                }
            ]
        }
    ],
    "textures" : [
        {
            "sampler" : 0,
            "source" : 0
        }
    ],
    "images" : [
        {
            "mimeType" : "image/jpeg",
            "name" : "texture",
            "uri" : "texture.jpg"
        }
    ],
    "accessors" : [
        {
            "bufferView" : 0,
            "componentType" : 5126,
            "count" : 2879,
            "max" : [
                9500.25,
                8924.75,
                0
            ],
            "min" : [
                -10132.21875,
                -8924.5,
                -44.37699890136719
            ],
            "type" : "VEC3"
        },
        {
            "bufferView" : 1,
            "componentType" : 5126,
            "count" : 2879,
            "type" : "VEC2"
        },
        {
            "bufferView" : 2,
            "componentType" : 5123,
            "count" : 15840,
            "type" : "SCALAR"
        },
        {
            "bufferView" : 3,
            "componentType" : 5126,
            "count" : 952,
            "max" : [
                9500.25,
                8924.75,
                209.54249572753906
            ],
            "min" : [
                -10132.21875,
                -8924.5,
                -44.37699890136719
            ],
            "type" : "VEC3"
        },
        {
            "bufferView" : 4,
            "componentType" : 5126,
            "count" : 952,
            "type" : "VEC2"
        },
        {
            "bufferView" : 5,
            "componentType" : 5123,
            "count" : 2856,
            "type" : "SCALAR"
        },
        {
            "bufferView" : 6,
            "componentType" : 5126,
            "count" : 403380,
            "max" : [
                9551,
                8889.75,
                4.0879998207092285
            ],
            "min" : [
                -10232.90625,
                -8786.25,
                -822.7667236328125
            ],
            "type" : "VEC3"
        },
        {
            "bufferView" : 7,
            "componentType" : 5126,
            "count" : 403380,
            "type" : "VEC2"
        },
        {
            "bufferView" : 8,
            "componentType" : 5125,
            "count" : 1648944,
            "type" : "SCALAR"
        }
    ],
    "bufferViews" : [
        {
            "buffer" : 0,
            "byteLength" : 34548,
            "byteOffset" : 0
        },
        {
            "buffer" : 0,
            "byteLength" : 23032,
            "byteOffset" : 34548
        },
        {
            "buffer" : 0,
            "byteLength" : 31680,
            "byteOffset" : 57580
        },
        {
            "buffer" : 0,
            "byteLength" : 11424,
            "byteOffset" : 89260
        },
        {
            "buffer" : 0,
            "byteLength" : 7616,
            "byteOffset" : 100684
        },
        {
            "buffer" : 0,
            "byteLength" : 5712,
            "byteOffset" : 108300
        },
        {
            "buffer" : 0,
            "byteLength" : 4840560,
            "byteOffset" : 114012
        },
        {
            "buffer" : 0,
            "byteLength" : 3227040,
            "byteOffset" : 4954572
        },
        {
            "buffer" : 0,
            "byteLength" : 6595776,
            "byteOffset" : 8181612
        }
    ],
    "samplers" : [
        {
            "magFilter" : 9729,
            "minFilter" : 9986
        }
    ],
    "buffers" : [
        {
            "byteLength" : 14777388,
            "uri" : "scene.bin"
        }
    ]
}
