{
    "asset" : {
        "generator" : "Khronos glTF Blender I/O v1.4.40",
        "version" : "2.0"
    },
    "scene" : 0,
    "scenes" : [
        {
            "name" : "Scene",
            "nodes" : [
                0
            ]
        }
    ],
    "nodes" : [
        {
            "mesh" : 0,
            "name" : "Kilimanjaro_v3_0",
            "rotation" : [
                0.7071068286895752,
                0,
                0,
                0.7071067094802856
            ]
        }
    ],
    "materials" : [
        {
            "doubleSided" : true,
            "name" : "CityEngineTerrainMaterial.009",
            "pbrMetallicRoughness" : {
                "baseColorTexture" : {
                    "index" : 0,
                    "texCoord" : 0
                },
                "metallicFactor" : 0
            }
        },
        {
            "doubleSided" : true,
            "name" : "CityEngineTerrainSidesMaterial.001",
            "pbrMetallicRoughness" : {
                "baseColorFactor" : [
                    0.08630000054836273,
                    0.0471000000834465,
                    0.011800000444054604,
                    1
                ],
                "metallicFactor" : 0
            }
        }
    ],
    "meshes" : [
        {
            "name" : "Kilimanjaro_v3_0",
            "primitives" : [
                {
                    "attributes" : {
                        "POSITION" : 0,
                        "TEXCOORD_0" : 1
                    },
                    "indices" : 2,
                    "material" : 0
                },
                {
                    "attributes" : {
                        "POSITION" : 3,
                        "TEXCOORD_0" : 4
                    },
                    "indices" : 5,
                    "material" : 1
                }
            ]
        }
    ],
    "textures" : [
        {
            "sampler" : 0,
            "source" : 0
        }
    ],
    "images" : [
        {
            "mimeType" : "image/jpeg",
            "name" : "texture",
            "uri" : "texture.jpg"
        }
    ],
    "accessors" : [
        {
            "bufferView" : 0,
            "componentType" : 5126,
            "count" : 4499,
            "max" : [
                14677.375,
                14678,
                -1459.77197265625
            ],
            "min" : [
                -14677.375,
                -14677,
                -5876.76416015625
            ],
            "type" : "VEC3"
        },
        {
            "bufferView" : 1,
            "componentType" : 5126,
            "count" : 4499,
            "type" : "VEC2"
        },
        {
            "bufferView" : 2,
            "componentType" : 5123,
            "count" : 25200,
            "type" : "SCALAR"
        },
        {
            "bufferView" : 3,
            "componentType" : 5126,
            "count" : 1192,
            "max" : [
                14677.375,
                14678,
                3.715100049972534
            ],
            "min" : [
                -14677.375,
                -14677,
                -3813.118896484375
            ],
            "type" : "VEC3"
        },
        {
            "bufferView" : 4,
            "componentType" : 5126,
            "count" : 1192,
            "type" : "VEC2"
        },
        {
            "bufferView" : 5,
            "componentType" : 5123,
            "count" : 3576,
            "type" : "SCALAR"
        }
    ],
    "bufferViews" : [
        {
            "buffer" : 0,
            "byteLength" : 53988,
            "byteOffset" : 0
        },
        {
            "buffer" : 0,
            "byteLength" : 35992,
            "byteOffset" : 53988
        },
        {
            "buffer" : 0,
            "byteLength" : 50400,
            "byteOffset" : 89980
        },
        {
            "buffer" : 0,
            "byteLength" : 14304,
            "byteOffset" : 140380
        },
        {
            "buffer" : 0,
            "byteLength" : 9536,
            "byteOffset" : 154684
        },
        {
            "buffer" : 0,
            "byteLength" : 7152,
            "byteOffset" : 164220
        }
    ],
    "samplers" : [
        {
            "magFilter" : 9729,
            "minFilter" : 9986
        }
    ],
    "buffers" : [
        {
            "byteLength" : 171372,
            "uri" : "scene.bin"
        }
    ]
}
