<?xml version="1.0" encoding="utf-8"?>
<!-- Generator: Adobe Illustrator 24.3.0, SVG Export Plug-In . SVG Version: 6.00 Build 0)  -->
<svg version="1.1" id="Layer_1" xmlns="http://www.w3.org/2000/svg" xmlns:xlink="http://www.w3.org/1999/xlink" x="0px" y="0px"
	 viewBox="0 0 114.42 71.11" style="enable-background:new 0 0 114.42 71.11;" xml:space="preserve">
<style type="text/css">
	.st0{fill:none;stroke:#7C6B6D;stroke-width:0.5;stroke-miterlimit:10;}
	.st1{fill:#7C6B6D;}
</style>
<path class="st0" d="M59.82-19.48l-27.89-0.96c-1.1-0.04-1.97-0.96-1.93-2.07l0.5-14.42c0.04-1.1,0.96-1.97,2.07-1.93l27.89,0.96
	c1.1,0.04,1.97,0.96,1.93,2.07l-0.5,14.42C61.85-20.31,60.92-19.45,59.82-19.48z"/>
<path class="st0" d="M37.97-31.9l0.23-6.77L37.97-31.9z"/>
<line class="st0" x1="30.34" y1="-32.16" x2="37.97" y2="-31.9"/>
<circle class="st0" cx="51.82" cy="-28.98" r="5.63"/>
<rect x="33.83" y="-24.92" transform="matrix(0.9994 0.0344 -0.0344 0.9994 -0.7569 -1.2125)" class="st0" width="2.14" height="4.57"/>
<rect x="37.54" y="-24.79" transform="matrix(0.9994 0.0344 -0.0344 0.9994 -0.7503 -1.3398)" class="st0" width="2.14" height="4.57"/>
<rect x="38.49" y="-19.96" transform="matrix(0.9994 0.0344 -0.0344 0.9994 -0.6186 -1.5922)" class="st0" width="15.07" height="2.32"/>
<rect x="43.15" y="-17.72" transform="matrix(0.9994 0.0344 -0.0344 0.9994 0.296 -1.5482)" class="st0" width="4.1" height="51.12"/>
<path class="st0" d="M90.51,23.98l-43.77-1.5l-0.38,10.97l-4.1-0.14l0.38-10.97l-9.6-0.33c-1.81-0.06-3.32,1.35-3.38,3.16
	l-0.91,26.61c-0.06,1.81,1.35,3.32,3.16,3.38l57.46,1.98c1.81,0.06,3.32-1.35,3.38-3.16l0.91-26.61
	C93.73,25.56,92.32,24.05,90.51,23.98z"/>
<g>
	<path class="st0" d="M24.74,62.34l-5.36-0.18c-1.66-0.06-2.95-1.45-2.9-3.1l0.89-25.99c0.06-1.66,1.45-2.95,3.1-2.9l5.36,0.18
		c1.66,0.06,2.95,1.45,2.9,3.1l-0.89,25.99C27.78,61.1,26.39,62.4,24.74,62.34z"/>
	
		<rect x="17.34" y="32.68" transform="matrix(0.9994 0.0344 -0.0344 0.9994 1.1854 -0.6474)" class="st1" width="4.19" height="2.98"/>
	
		<rect x="17.12" y="38.83" transform="matrix(0.9994 0.0344 -0.0344 0.9994 1.3965 -0.6365)" class="st1" width="4.19" height="2.98"/>
	
		<rect x="16.91" y="44.98" transform="matrix(0.9994 0.0344 -0.0344 0.9994 1.6077 -0.6257)" class="st1" width="4.19" height="2.98"/>
	
		<rect x="16.7" y="51.13" transform="matrix(0.9994 0.0344 -0.0344 0.9994 1.8188 -0.6148)" class="st1" width="4.19" height="2.98"/>
	
		<rect x="16.49" y="57.28" transform="matrix(0.9994 0.0344 -0.0344 0.9994 2.03 -0.6039)" class="st1" width="4.19" height="2.98"/>
	
		<rect x="24.51" y="32.92" transform="matrix(0.9994 0.0344 -0.0344 0.9994 1.1981 -0.8936)" class="st1" width="4.19" height="2.98"/>
	
		<rect x="24.29" y="39.07" transform="matrix(0.9994 0.0344 -0.0344 0.9994 1.4092 -0.8827)" class="st1" width="4.19" height="2.98"/>
	
		<rect x="24.08" y="45.22" transform="matrix(0.9994 0.0344 -0.0344 0.9994 1.6204 -0.8719)" class="st1" width="4.19" height="2.98"/>
	
		<rect x="23.87" y="51.37" transform="matrix(0.9994 0.0344 -0.0344 0.9994 1.8315 -0.861)" class="st1" width="4.19" height="2.98"/>
	
		<rect x="23.66" y="57.52" transform="matrix(0.9994 0.0344 -0.0344 0.9994 2.0427 -0.8501)" class="st1" width="4.19" height="2.98"/>
</g>
<g>
	<path class="st0" d="M100.75,64.95l-5.36-0.18c-1.66-0.06-2.95-1.45-2.9-3.1l0.89-25.99c0.06-1.66,1.45-2.95,3.1-2.9l5.36,0.18
		c1.66,0.06,2.95,1.45,2.9,3.1l-0.89,25.99C103.8,63.72,102.41,65.01,100.75,64.95z"/>
	
		<rect x="93.35" y="35.29" transform="matrix(0.9994 0.0344 -0.0344 0.9994 1.32 -3.2575)" class="st1" width="4.19" height="2.98"/>
	
		<rect x="93.14" y="41.44" transform="matrix(0.9994 0.0344 -0.0344 0.9994 1.5312 -3.2466)" class="st1" width="4.19" height="2.98"/>
	
		<rect x="92.93" y="47.59" transform="matrix(0.9994 0.0344 -0.0344 0.9994 1.7423 -3.2357)" class="st1" width="4.19" height="2.98"/>
	
		<rect x="92.72" y="53.74" transform="matrix(0.9994 0.0344 -0.0344 0.9994 1.9535 -3.2248)" class="st1" width="4.19" height="2.98"/>
	
		<rect x="92.5" y="59.89" transform="matrix(0.9994 0.0344 -0.0344 0.9994 2.1646 -3.2139)" class="st1" width="4.19" height="2.98"/>
	
		<rect x="100.52" y="35.54" transform="matrix(0.9994 0.0344 -0.0344 0.9994 1.3327 -3.5037)" class="st1" width="4.19" height="2.98"/>
	
		<rect x="100.31" y="41.69" transform="matrix(0.9994 0.0344 -0.0344 0.9994 1.5439 -3.4928)" class="st1" width="4.19" height="2.98"/>
	
		<rect x="100.1" y="47.84" transform="matrix(0.9994 0.0344 -0.0344 0.9994 1.755 -3.4819)" class="st1" width="4.19" height="2.98"/>
	
		<rect x="99.89" y="53.99" transform="matrix(0.9994 0.0344 -0.0344 0.9994 1.9662 -3.471)" class="st1" width="4.19" height="2.98"/>
	
		<rect x="99.67" y="60.13" transform="matrix(0.9994 0.0344 -0.0344 0.9994 2.1773 -3.4601)" class="st1" width="4.19" height="2.98"/>
</g>
<rect x="37.11" y="49.07" transform="matrix(0.9994 0.0344 -0.0344 0.9994 1.8436 -2.0444)" class="st0" width="46.59" height="7.1"/>
<rect x="55.75" y="17.98" transform="matrix(0.9994 0.0344 -0.0344 0.9994 0.7485 -2.3668)" class="st0" width="26.98" height="5.24"/>
<polygon class="st0" points="44.49,48.58 48.13,41.31 74.86,42.23 78.57,49.7 "/>
<line class="st0" x1="52.65" y1="48.4" x2="52.88" y2="41.48"/>
<line class="st0" x1="55.32" y1="48.49" x2="55.56" y2="41.57"/>
<line class="st0" x1="57.99" y1="48.58" x2="58.23" y2="41.66"/>
<line class="st0" x1="60.66" y1="48.67" x2="60.9" y2="41.75"/>
<line class="st0" x1="63.34" y1="48.76" x2="63.57" y2="41.84"/>
<line class="st0" x1="66.01" y1="48.86" x2="66.25" y2="41.93"/>
<line class="st0" x1="68.68" y1="48.95" x2="68.92" y2="42.03"/>
<line class="st0" x1="71.36" y1="49.04" x2="71.59" y2="42.12"/>
<line class="st0" x1="69.33" y1="17.98" x2="80.66" y2="-11.17"/>
<circle class="st0" cx="81.42" cy="-13.08" r="2.24"/>
</svg>
