<?xml version="1.0" encoding="utf-8"?>
<!-- Generator: Adobe Illustrator 24.3.0, SVG Export Plug-In . SVG Version: 6.00 Build 0)  -->
<svg version="1.1" id="Layer_1" xmlns="http://www.w3.org/2000/svg" xmlns:xlink="http://www.w3.org/1999/xlink" x="0px" y="0px"
	 viewBox="0 0 114.42 71.11" style="enable-background:new 0 0 114.42 71.11;" xml:space="preserve">
<style type="text/css">
	.st0{fill:none;stroke:#7C6B6D;stroke-width:0.5;stroke-miterlimit:10;}
	.st1{fill:#7C6B6D;}
</style>
<path class="st0" d="M51.47,14.56l-24.78,4.87c-1.08,0.21-2.14-0.49-2.35-1.58L21.86,5.19c-0.21-1.08,0.49-2.14,1.58-2.35
	l24.78-4.87c1.08-0.21,2.14,0.49,2.35,1.58l2.49,12.66C53.26,13.29,52.55,14.34,51.47,14.56z"/>
<path class="st0" d="M29.54,7.97l-1.2-6.1L29.54,7.97z"/>
<line class="st0" x1="22.67" y1="9.32" x2="29.54" y2="7.97"/>
<circle class="st0" cx="42.52" cy="7.7" r="5.16"/>
<rect x="27.74" y="14.79" transform="matrix(0.9813 -0.1927 0.1927 0.9813 -2.7157 5.8529)" class="st0" width="1.96" height="4.19"/>
<rect x="31.08" y="14.13" transform="matrix(0.9813 -0.1927 0.1927 0.9813 -2.5268 6.4839)" class="st0" width="1.96" height="4.19"/>
<rect x="32.54" y="16.94" transform="matrix(0.9813 -0.1927 0.1927 0.9813 -2.7296 7.9405)" class="st0" width="13.81" height="2.13"/>
<rect x="42.36" y="18.53" transform="matrix(0.9813 -0.1927 0.1927 0.9813 -7.2571 9.3133)" class="st0" width="3.76" height="46.86"/>
<path class="st0" d="M88.06,46.97l-39.4,7.74l1.94,9.88l-3.69,0.72l-1.94-9.88l-8.64,1.7c-1.63,0.32-2.68,1.9-2.37,3.52l4.7,23.95
	c0.32,1.63,1.9,2.68,3.52,2.37l51.73-10.16c1.63-0.32,2.68-1.9,2.37-3.52l-4.7-23.95C91.27,47.71,89.69,46.65,88.06,46.97z"/>
<g>
	<path class="st0" d="M37.04,94.93l-4.34,0.85c-1.63,0.32-3.2-0.74-3.52-2.37l-4.5-22.9c-0.32-1.63,0.74-3.2,2.37-3.52l4.34-0.85
		c1.63-0.32,3.2,0.74,3.52,2.37l4.5,22.9C39.72,93.03,38.66,94.61,37.04,94.93z"/>
	
		<rect x="24.77" y="69.45" transform="matrix(0.9813 -0.1927 0.1927 0.9813 -13.1481 6.4726)" class="st1" width="3.84" height="2.73"/>
	
		<rect x="25.86" y="74.99" transform="matrix(0.9813 -0.1927 0.1927 0.9813 -14.1945 6.7859)" class="st1" width="3.84" height="2.73"/>
	
		<rect x="26.95" y="80.52" transform="matrix(0.9813 -0.1927 0.1927 0.9813 -15.241 7.0992)" class="st1" width="3.84" height="2.73"/>
	
		<rect x="28.04" y="86.06" transform="matrix(0.9813 -0.1927 0.1927 0.9813 -16.2874 7.4125)" class="st1" width="3.84" height="2.73"/>
	
		<rect x="29.12" y="91.6" transform="matrix(0.9813 -0.1927 0.1927 0.9813 -17.3339 7.7258)" class="st1" width="3.84" height="2.73"/>
	
		<rect x="31.23" y="68.18" transform="matrix(0.9813 -0.1927 0.1927 0.9813 -12.7827 7.6928)" class="st1" width="3.84" height="2.73"/>
	
		<rect x="32.32" y="73.72" transform="matrix(0.9813 -0.1927 0.1927 0.9813 -13.8292 8.0061)" class="st1" width="3.84" height="2.73"/>
	
		<rect x="33.4" y="79.26" transform="matrix(0.9813 -0.1927 0.1927 0.9813 -14.8756 8.3194)" class="st1" width="3.84" height="2.73"/>
	
		<rect x="34.49" y="84.79" transform="matrix(0.9813 -0.1927 0.1927 0.9813 -15.9221 8.6327)" class="st1" width="3.84" height="2.73"/>
	
		<rect x="35.58" y="90.33" transform="matrix(0.9813 -0.1927 0.1927 0.9813 -16.9686 8.946)" class="st1" width="3.84" height="2.73"/>
</g>
<g>
	<path class="st0" d="M105.46,81.49l-4.34,0.85c-1.63,0.32-3.2-0.74-3.52-2.37l-4.5-22.9c-0.32-1.63,0.74-3.2,2.37-3.52l4.34-0.85
		c1.63-0.32,3.2,0.74,3.52,2.37l4.5,22.9C108.15,79.59,107.09,81.17,105.46,81.49z"/>
	
		<rect x="93.2" y="56.01" transform="matrix(0.9813 -0.1927 0.1927 0.9813 -9.2752 19.408)" class="st1" width="3.84" height="2.73"/>
	
		<rect x="94.29" y="61.55" transform="matrix(0.9813 -0.1927 0.1927 0.9813 -10.3217 19.7213)" class="st1" width="3.84" height="2.73"/>
	
		<rect x="95.38" y="67.08" transform="matrix(0.9813 -0.1927 0.1927 0.9813 -11.3681 20.0347)" class="st1" width="3.84" height="2.73"/>
	
		<rect x="96.46" y="72.62" transform="matrix(0.9813 -0.1927 0.1927 0.9813 -12.4146 20.348)" class="st1" width="3.84" height="2.73"/>
	
		<rect x="97.55" y="78.16" transform="matrix(0.9813 -0.1927 0.1927 0.9813 -13.461 20.6613)" class="st1" width="3.84" height="2.73"/>
	
		<rect x="99.66" y="54.75" transform="matrix(0.9813 -0.1927 0.1927 0.9813 -8.9099 20.6282)" class="st1" width="3.84" height="2.73"/>
	
		<rect x="100.74" y="60.28" transform="matrix(0.9813 -0.1927 0.1927 0.9813 -9.9563 20.9415)" class="st1" width="3.84" height="2.73"/>
	
		<rect x="101.83" y="65.82" transform="matrix(0.9813 -0.1927 0.1927 0.9813 -11.0028 21.2549)" class="st1" width="3.84" height="2.73"/>
	
		<rect x="102.92" y="71.35" transform="matrix(0.9813 -0.1927 0.1927 0.9813 -12.0493 21.5682)" class="st1" width="3.84" height="2.73"/>
	
		<rect x="104" y="76.89" transform="matrix(0.9813 -0.1927 0.1927 0.9813 -13.0957 21.8815)" class="st1" width="3.84" height="2.73"/>
</g>
<rect x="45.76" y="75.54" transform="matrix(0.9813 -0.1927 0.1927 0.9813 -13.9277 14.4129)" class="st0" width="42.72" height="6.51"/>
<rect x="56" y="45.96" transform="matrix(0.9813 -0.1927 0.1927 0.9813 -8.039 14.0818)" class="st0" width="24.73" height="4.81"/>
<polygon class="st0" points="52.06,78.49 53.81,71.24 77.87,66.52 82.73,72.42 "/>
<line class="st0" x1="59.31" y1="76.63" x2="58.09" y2="70.4"/>
<line class="st0" x1="61.72" y1="76.16" x2="60.49" y2="69.93"/>
<line class="st0" x1="64.12" y1="75.69" x2="62.9" y2="69.46"/>
<line class="st0" x1="66.53" y1="75.22" x2="65.3" y2="68.99"/>
<line class="st0" x1="68.93" y1="74.74" x2="67.71" y2="68.51"/>
<line class="st0" x1="71.34" y1="74.27" x2="70.12" y2="68.04"/>
<line class="st0" x1="73.75" y1="73.8" x2="72.52" y2="67.57"/>
<line class="st0" x1="76.15" y1="73.33" x2="74.93" y2="67.1"/>
<line class="st0" x1="67.9" y1="46.01" x2="71.97" y2="17.62"/>
<circle class="st0" cx="72.25" cy="15.76" r="2.06"/>
</svg>
