<?xml version="1.0" encoding="utf-8"?>
<!-- Generator: Adobe Illustrator 24.3.0, SVG Export Plug-In . SVG Version: 6.00 Build 0)  -->
<svg version="1.1" id="Layer_1" xmlns="http://www.w3.org/2000/svg" xmlns:xlink="http://www.w3.org/1999/xlink" x="0px" y="0px"
	 viewBox="0 0 114.42 71.65" style="enable-background:new 0 0 114.42 71.65;" xml:space="preserve">
<style type="text/css">
	.st0{fill:none;stroke:#7C6B6D;stroke-width:0.5;stroke-miterlimit:10;}
</style>
<g>
	<path class="st0" d="M67.73,17.77h-20.2c-1.1,0-2-0.9-2-2V5.79c0-1.1,0.9-2,2-2h20.2c1.1,0,2,0.9,2,2v9.98
		C69.73,16.87,68.83,17.77,67.73,17.77z"/>
	<path class="st0" d="M51.33,8.93V3.79V8.93z"/>
	<line class="st0" x1="45.53" y1="8.93" x2="51.33" y2="8.93"/>
	<circle class="st0" cx="61.9" cy="10.78" r="4.27"/>
	<rect x="48.43" y="14.3" class="st0" width="1.63" height="3.47"/>
	<rect x="51.24" y="14.3" class="st0" width="1.63" height="3.47"/>
	<rect x="52.05" y="17.77" class="st0" width="11.43" height="1.76"/>
</g>
<circle class="st0" cx="37.27" cy="69.25" r="9.12"/>
<circle class="st0" cx="64.64" cy="69.25" r="9.12"/>
<path class="st0" d="M91.6,60.13V39.45c0-1.66-1.34-3-3-3H48.45v10.07h-3.76V36.45h-8.8c-1.66,0-3,1.34-3,3v21.79
	c1.3-0.71,2.79-1.12,4.38-1.12c4.21,0,7.75,2.86,8.8,6.74h9.77c1.05-3.88,4.59-6.74,8.8-6.74s7.75,2.86,8.8,6.74h9.37
	C83.85,62.99,87.39,60.13,91.6,60.13z"/>
<circle class="st0" cx="91.6" cy="69.25" r="9.12"/>
<line class="st0" x1="48.68" y1="51.66" x2="48.68" y2="60.13"/>
<line class="st0" x1="50.09" y1="51.66" x2="50.09" y2="60.13"/>
<line class="st0" x1="51.51" y1="51.66" x2="51.51" y2="60.13"/>
<line class="st0" x1="52.93" y1="51.66" x2="52.93" y2="60.13"/>
<line class="st0" x1="54.34" y1="51.66" x2="54.34" y2="60.13"/>
<line class="st0" x1="55.76" y1="51.66" x2="55.76" y2="60.13"/>
<line class="st0" x1="57.18" y1="51.66" x2="57.18" y2="60.13"/>
<line class="st0" x1="67.93" y1="44.76" x2="86.45" y2="44.76"/>
<circle class="st0" cx="62.24" cy="44.76" r="2.23"/>
<rect x="56.49" y="19.53" class="st0" width="2.54" height="16.92"/>
<polygon class="st0" points="94.96,14.26 93.57,12.18 91.9,13.29 89.98,13.09 90.31,11.86 92.88,10.28 91.56,8.15 88.14,10.26 
	87.33,13.36 79.45,18.11 73.86,36.37 76.25,36.39 81.56,19.76 88.69,15.46 92.54,15.88 "/>
<line class="st0" x1="41.5" y1="36.45" x2="24.16" y2="12.71"/>
<circle class="st0" cx="23.52" cy="11.96" r="1.18"/>
</svg>
