<?xml version="1.0" encoding="utf-8"?>
<!-- Generator: Adobe Illustrator 24.3.0, SVG Export Plug-In . SVG Version: 6.00 Build 0)  -->
<svg version="1.1" id="Layer_1" xmlns="http://www.w3.org/2000/svg" xmlns:xlink="http://www.w3.org/1999/xlink" x="0px" y="0px"
	 viewBox="0 0 114.4 71.7" style="enable-background:new 0 0 114.4 71.7;" xml:space="preserve">
<style type="text/css">
	.st0{fill:none;stroke:#7C6B6D;stroke-width:0.5;stroke-miterlimit:10;}
</style>
<polyline class="st0" points="0.4,36 2.9,36.6 12.3,32.1 15.2,32.1 22.7,29 22.7,26.7 39.5,15.5 45.4,16.5 49.8,15.5 51,16.5 
	52.3,15.5 56.6,16.3 71.6,15.5 73.9,14.7 82.1,16.2 92.9,22.2 101.7,27.2 102.2,28.6 114.8,32.1 "/>
<polyline class="st0" points="36,18.6 34.7,20.9 36.7,20.9 36.3,21.5 41.7,18.6 42.3,21 47.1,19.3 47.8,22.7 52,19.5 53,20.9 
	54.1,18.2 55.8,18.7 56.6,17.2 57.6,18.5 60.5,17.2 60.9,18.7 62.4,17.7 63.2,18.8 66.4,18 69.4,20 72.1,17.6 74.6,18.9 79.7,19.5 
	79.5,17.6 81.4,19.1 81.4,17.2 86.3,20 89.3,20.2 "/>
<polyline class="st0" points="43.4,21.2 35.2,27.1 34.7,28.3 32.5,30.7 29.5,31 25.2,33.6 23.8,33.2 15.9,36 "/>
<polyline class="st0" points="34.7,22.7 31.5,25.3 27.6,26.8 25.2,27.8 21.7,31.5 17.2,33.4 "/>
<polyline class="st0" points="50.4,21.9 49.5,24.5 51.1,28 49.5,31 50.3,34.5 "/>
<polyline class="st0" points="56.1,20 55.3,23.1 56.1,24.5 54.5,26.1 56.8,28.2 "/>
<polyline class="st0" points="63.9,20.3 63.9,22.4 62.5,24.5 62,27.2 65.3,28.6 64.3,30.7 66.7,32.6 "/>
<polyline class="st0" points="70,19.4 71.6,24.2 70,26.5 74.6,31.5 "/>
<polyline class="st0" points="73.6,19.4 79.3,25.5 86.8,29.1 "/>
<polyline class="st0" points="83.5,18.9 84.3,21 89.3,23.6 90.5,26.5 96.6,28.6 99.2,31.1 "/>
</svg>
