<?xml version="1.0" encoding="utf-8"?>
<!-- Generator: Adobe Illustrator 24.3.0, SVG Export Plug-In . SVG Version: 6.00 Build 0)  -->
<svg version="1.1" id="Layer_1" xmlns="http://www.w3.org/2000/svg" xmlns:xlink="http://www.w3.org/1999/xlink" x="0px" y="0px"
	 viewBox="0 0 114.42 71.65" style="enable-background:new 0 0 114.42 71.65;" xml:space="preserve">
<style type="text/css">
	.st0{fill:none;stroke:#7C6B6D;stroke-width:0.5;stroke-miterlimit:10;}
	.st1{clip-path:url(#SVGID_2_);}
</style>
<g>
	<polyline class="st0" points="3.55,65.48 3.55,59.68 6.23,59.68 6.23,57.04 7.62,57.04 7.62,51.88 8.41,51.08 8.41,45.32 
		7.86,44.77 7.86,37.92 8.52,37.26 7.23,35.97 7.23,33.69 6.8,33.27 6.8,31.85 5.97,31.02 5.97,29.66 7.29,28.35 7.29,22.31 
		6.71,21.74 6.71,20.08 7.18,19.61 7.18,19.04 6.03,19.04 6.03,17.48 7.18,17.48 6.18,16.48 6.18,14.92 7.99,13.1 9.58,14.92 
		9.58,16.48 8.58,17.48 9.73,17.48 9.73,19.04 8.58,19.04 8.58,19.61 9.05,20.08 9.05,21.74 8.48,22.31 8.48,28.35 9.79,29.66 
		9.79,30.99 10.67,30.12 10.67,28.72 9.97,28.01 8.84,28.01 10.31,27.43 10.31,26.72 8.89,25.3 10.88,26.2 11.45,26.2 12.16,22.98 
		12.87,26.2 13.44,26.2 15.43,25.3 14.01,26.72 14.01,27.43 15.48,28.01 14.35,28.01 13.65,28.72 13.65,30.12 14.52,30.99 
		14.52,32.7 16.45,34.62 16.45,37.35 18.57,35.22 20.58,37.23 19.41,38.39 20.27,39.24 18.77,40.74 18.77,43.04 17.81,44 
		16.95,43.13 16.95,44.79 16.95,48.11 17.85,49.01 17,49.87 17,57.04 18.75,57.04 18.75,59.68 20.58,59.68 20.58,65.48 	"/>
	<g>
		<polyline class="st0" points="92.27,65.9 92.27,63.81 91.22,63.81 91.22,43.87 92.27,43.87 92.27,43.01 85.14,43.01 85.14,43.87 
			86.19,43.87 86.19,63.81 85.14,63.81 85.14,65.9 		"/>
		<line class="st0" x1="91.22" y1="44.34" x2="104.42" y2="57.55"/>
		<line class="st0" x1="91.22" y1="47.23" x2="101.54" y2="57.55"/>
		<line class="st0" x1="91.22" y1="50.11" x2="98.65" y2="57.55"/>
		<line class="st0" x1="91.22" y1="53" x2="95.77" y2="57.55"/>
		<line class="st0" x1="86.19" y1="44.34" x2="72.98" y2="57.55"/>
		<line class="st0" x1="86.19" y1="47.23" x2="75.87" y2="57.55"/>
		<line class="st0" x1="86.19" y1="50.11" x2="78.75" y2="57.55"/>
		<line class="st0" x1="86.19" y1="53" x2="81.64" y2="57.55"/>
		<polyline class="st0" points="86.19,58.93 72.98,58.93 72.98,65.9 85.14,65.9 		"/>
		<line class="st0" x1="86.19" y1="57.55" x2="72.98" y2="57.55"/>
		<polyline class="st0" points="123.7,65.9 123.7,63.81 122.66,63.81 122.66,43.87 123.7,43.87 123.7,43.01 116.58,43.01 
			116.58,43.87 117.63,43.87 117.63,63.81 116.58,63.81 116.58,65.9 		"/>
		<line class="st0" x1="122.66" y1="44.34" x2="135.86" y2="57.55"/>
		<line class="st0" x1="122.66" y1="47.23" x2="132.98" y2="57.55"/>
		<line class="st0" x1="122.66" y1="50.11" x2="130.09" y2="57.55"/>
		<line class="st0" x1="122.66" y1="53" x2="127.21" y2="57.55"/>
		<polyline class="st0" points="122.66,57.55 135.86,57.55 135.86,58.93 122.66,58.93 		"/>
		<line class="st0" x1="117.63" y1="44.34" x2="104.42" y2="57.55"/>
		<line class="st0" x1="117.63" y1="47.23" x2="107.31" y2="57.55"/>
		<line class="st0" x1="117.63" y1="50.11" x2="110.19" y2="57.55"/>
		<line class="st0" x1="117.63" y1="53" x2="113.08" y2="57.55"/>
		<polyline class="st0" points="117.63,57.55 104.42,57.55 91.22,57.55 		"/>
		<polyline class="st0" points="91.22,58.93 104.42,58.93 117.63,58.93 		"/>
	</g>
	<rect x="87.51" y="45.96" class="st0" width="2.4" height="7.54"/>
	<rect x="118.94" y="45.96" class="st0" width="2.4" height="7.54"/>
	<path class="st0" d="M59.34,65.9"/>
	<line class="st0" x1="92.27" y1="65.9" x2="116.58" y2="65.9"/>
	<g>
		<polyline class="st0" points="72.98,57.55 72.98,18.64 71.12,18.64 71.12,14.88 66.66,14.88 66.66,3.26 65.67,3.26 65.67,14.88 
			61.2,14.88 61.2,18.64 59.34,18.64 59.34,65.9 		"/>
	</g>
	<g>
		<polyline class="st0" points="20.58,65.48 24.63,65.48 26.32,65.48 26.32,32.12 38.17,24.71 38.17,65.48 40.31,65.48 		"/>
	</g>
	<g>
		<polyline class="st0" points="162.25,65.9 162.25,48.34 169.25,48.34 169.25,43.67 173.14,43.67 173.14,48.34 173.14,48.34 
			175.81,48.34 175.81,65.9 181.71,65.9 		"/>
	</g>
	<g>
		<path class="st0" d="M158.91,23.1h-1.79v-1.79h-4.18v-1.79h-3.02c0.1-0.28,0.16-0.58,0.16-0.9c0-1.48-1.2-2.69-2.69-2.69
			c-1.48,0-2.69,1.2-2.69,2.69c0,0.31,0.06,0.62,0.16,0.9h-3.02v1.79h-4.18v1.79h-1.79v3.31h1.79v1.79h19.46v-1.79h1.79V23.1z"/>
		<rect x="137.66" y="28.2" class="st0" width="3.1" height="27.82"/>
		<rect x="143.11" y="28.2" class="st0" width="3.1" height="27.82"/>
		<rect x="148.57" y="28.2" class="st0" width="3.1" height="27.82"/>
		<rect x="154.02" y="28.2" class="st0" width="3.1" height="27.82"/>
		<polyline class="st0" points="150.12,63.18 158.91,63.18 158.91,56.02 135.87,56.02 135.87,63.18 144.66,63.18 		"/>
		<polyline class="st0" points="144.66,63.16 134.9,63.16 134.9,65.9 		"/>
		<polyline class="st0" points="159.88,65.9 159.88,63.16 150.12,63.16 		"/>
		<polyline class="st0" points="144.66,63.16 144.66,58.59 150.12,58.59 150.12,63.16 		"/>
	</g>
	<line class="st0" x1="123.7" y1="65.9" x2="134.9" y2="65.9"/>
	<rect x="6.23" y="57.04" class="st0" width="12.52" height="2.64"/>
	<line class="st0" x1="3.55" y1="65.48" x2="-5.11" y2="65.48"/>
	<line class="st0" x1="159.88" y1="65.9" x2="162.25" y2="65.9"/>
	<rect x="6.03" y="17.48" class="st0" width="3.7" height="1.56"/>
	<g>
		<rect x="61.12" y="20.2" class="st0" width="2.32" height="4.33"/>
		<rect x="61.12" y="25.73" class="st0" width="2.32" height="4.33"/>
		<rect x="65" y="20.2" class="st0" width="2.32" height="4.33"/>
		<rect x="65" y="25.73" class="st0" width="2.32" height="4.33"/>
		<rect x="68.88" y="20.2" class="st0" width="2.32" height="4.33"/>
		<rect x="68.88" y="25.73" class="st0" width="2.32" height="4.33"/>
		<rect x="61.12" y="30.98" class="st0" width="2.32" height="4.33"/>
		<rect x="61.12" y="36.51" class="st0" width="2.32" height="4.33"/>
		<rect x="65" y="30.98" class="st0" width="2.32" height="4.33"/>
		<rect x="65" y="36.51" class="st0" width="2.32" height="4.33"/>
		<rect x="68.88" y="30.98" class="st0" width="2.32" height="4.33"/>
		<rect x="68.88" y="36.51" class="st0" width="2.32" height="4.33"/>
		<rect x="61.12" y="41.76" class="st0" width="2.32" height="4.33"/>
		<rect x="61.12" y="47.29" class="st0" width="2.32" height="4.33"/>
		<rect x="65" y="41.76" class="st0" width="2.32" height="4.33"/>
		<rect x="65" y="47.29" class="st0" width="2.32" height="4.33"/>
		<rect x="68.88" y="41.76" class="st0" width="2.32" height="4.33"/>
		<rect x="68.88" y="47.29" class="st0" width="2.32" height="4.33"/>
		<rect x="61.12" y="52.54" class="st0" width="2.32" height="4.33"/>
		<rect x="61.12" y="58.07" class="st0" width="2.32" height="4.33"/>
		<rect x="65" y="52.54" class="st0" width="2.32" height="4.33"/>
		<rect x="65" y="58.07" class="st0" width="2.32" height="4.33"/>
		<rect x="68.88" y="52.54" class="st0" width="2.32" height="4.33"/>
		<rect x="68.88" y="58.07" class="st0" width="2.32" height="4.33"/>
	</g>
	<g>
		<polyline class="st0" points="40.31,65.48 40.31,20.68 24.63,30.79 24.63,65.48 		"/>
		<line class="st0" x1="26.32" y1="36.09" x2="38.17" y2="28.68"/>
		<line class="st0" x1="26.32" y1="40.07" x2="38.17" y2="32.65"/>
		<line class="st0" x1="26.32" y1="44.04" x2="38.17" y2="36.63"/>
		<line class="st0" x1="26.32" y1="48.01" x2="38.17" y2="40.6"/>
		<line class="st0" x1="26.32" y1="51.98" x2="38.17" y2="44.57"/>
		<line class="st0" x1="26.32" y1="55.95" x2="38.17" y2="48.54"/>
		<line class="st0" x1="26.32" y1="59.92" x2="38.17" y2="52.51"/>
		<line class="st0" x1="26.32" y1="63.9" x2="38.17" y2="56.49"/>
	</g>
	<rect x="163.99" y="50.11" class="st0" width="2.36" height="2.36"/>
	<rect x="167.82" y="50.11" class="st0" width="2.36" height="2.36"/>
	<rect x="171.65" y="50.11" class="st0" width="2.36" height="2.36"/>
	<rect x="163.99" y="53.94" class="st0" width="2.36" height="2.36"/>
	<rect x="167.82" y="53.94" class="st0" width="2.36" height="2.36"/>
	<rect x="171.65" y="53.94" class="st0" width="2.36" height="2.36"/>
	<rect x="163.99" y="57.76" class="st0" width="2.36" height="2.36"/>
	<rect x="167.82" y="57.76" class="st0" width="2.36" height="2.36"/>
	<rect x="171.65" y="57.76" class="st0" width="2.36" height="2.36"/>
	<rect x="163.99" y="61.59" class="st0" width="2.36" height="2.36"/>
	<rect x="167.82" y="61.59" class="st0" width="2.36" height="2.36"/>
	<rect x="171.65" y="61.59" class="st0" width="2.36" height="2.36"/>
</g>
<g>
	<defs>
		<rect id="SVGID_1_" x="40.47" y="20.68" width="23.59" height="45.57"/>
	</defs>
	<clipPath id="SVGID_2_">
		<use xlink:href="#SVGID_1_"  style="overflow:visible;"/>
	</clipPath>
	<g class="st1">
		<line class="st0" x1="56.03" y1="66.25" x2="59.46" y2="66.25"/>
		<polyline class="st0" points="56.03,66.25 56.03,52.02 53.37,52.02 53.37,48.68 53.37,44.01 38.58,44.01 38.58,48.68 31.58,48.68 
			31.58,66.25 		"/>
		<line class="st0" x1="28.67" y1="66.25" x2="31.58" y2="66.25"/>
		<g>
			<rect x="40.31" y="45.16" class="st0" width="1.39" height="3.51"/>
			<rect x="42.81" y="45.16" class="st0" width="1.39" height="3.51"/>
			<rect x="45.31" y="45.16" class="st0" width="1.39" height="3.51"/>
			<rect x="47.82" y="45.16" class="st0" width="1.39" height="3.51"/>
			<rect x="50.32" y="45.16" class="st0" width="1.39" height="3.51"/>
			<rect x="33.87" y="50.92" class="st0" width="2.32" height="2.32"/>
			<rect x="37.58" y="50.92" class="st0" width="2.32" height="2.32"/>
			<rect x="41.29" y="50.92" class="st0" width="2.32" height="2.32"/>
			<rect x="44.99" y="50.92" class="st0" width="2.32" height="2.32"/>
			<rect x="48.7" y="50.92" class="st0" width="2.32" height="2.32"/>
			<rect x="33.87" y="54.69" class="st0" width="2.32" height="2.32"/>
			<rect x="37.58" y="54.69" class="st0" width="2.32" height="2.32"/>
			<rect x="41.29" y="54.69" class="st0" width="2.32" height="2.32"/>
			<rect x="44.99" y="54.69" class="st0" width="2.32" height="2.32"/>
			<rect x="48.7" y="54.69" class="st0" width="2.32" height="2.32"/>
			<rect x="52.38" y="54.69" class="st0" width="2.32" height="4.33"/>
			<rect x="52.38" y="60.22" class="st0" width="2.32" height="4.33"/>
			<rect x="33.87" y="58.47" class="st0" width="2.32" height="2.32"/>
			<rect x="37.58" y="58.47" class="st0" width="2.32" height="2.32"/>
			<rect x="41.29" y="58.47" class="st0" width="2.32" height="2.32"/>
			<rect x="44.99" y="58.47" class="st0" width="2.32" height="2.32"/>
			<rect x="48.7" y="58.47" class="st0" width="2.32" height="2.32"/>
			<rect x="33.87" y="62.24" class="st0" width="2.32" height="2.32"/>
			<rect x="37.58" y="62.24" class="st0" width="2.32" height="2.32"/>
			<rect x="41.29" y="62.24" class="st0" width="2.32" height="2.32"/>
			<rect x="44.99" y="62.24" class="st0" width="2.32" height="2.32"/>
			<rect x="48.7" y="62.24" class="st0" width="2.32" height="2.32"/>
		</g>
	</g>
</g>
</svg>
